<?xml version="1.0" encoding="iso-8859-1"?>
<!-- Generator: Adobe Illustrator 19.0.0, SVG Export Plug-In . SVG Version: 6.00 Build 0)  -->
<svg version="1.1" id="Capa_1" xmlns="http://www.w3.org/2000/svg" xmlns:xlink="http://www.w3.org/1999/xlink" x="0px" y="0px"
	 viewBox="0 0 464 464" style="enable-background:new 0 0 464 464;" xml:space="preserve">
<g>
	<path style="fill:#FFE6D2;" d="M153.444,344c-0.496,0-0.975-0.056-1.444-0.141V456c0,4.418,3.582,8,8,8h0c4.418,0,8-3.582,8-8
		V343.859c-0.468,0.085-0.948,0.141-1.444,0.141H153.444z"/>
	<path style="fill:#FFD76E;" d="M237.793,48c6.165,0,12.188,0.637,18.021,1.841c-3.395-2.483-7.019-4.53-10.818-6.099
		c-4.082-1.688-6.027-6.367-4.34-10.449c1.684-4.082,6.367-6.008,10.449-4.34c6.492,2.684,12.574,6.402,18.078,11.059
		c3.375,2.855,3.797,7.902,0.945,11.273c-0.681,0.806-1.493,1.433-2.372,1.898c13.796,4.927,26.157,13.163,36.243,23.815
		c3.397-3.587,7.055-6.895,10.935-9.9C302.286,28.06,267.341,0,226.207,0C200.362,0,176.965,11.082,160,28.999
		C143.035,11.082,119.638,0,93.793,0c6.565,0,12.967,0.729,19.151,2.09c-78.919,55.07-27.461,214.515,41.578,295.661
		c1.553-1.107,3.449-1.75,5.475-1.75h0.006c3.165,0,6.011,1.57,7.732,4.024c12.618-6.755,25.376-14.924,37.858-24.194
		C169.748,236.151,144,189.422,144,147.385C144,92.496,185.992,48,237.793,48z M136.766,59c-2.117,0-4.234-0.836-5.809-2.5
		c-4.328-4.566-9.242-8.277-14.602-11.023c-3.934-2.016-5.484-6.836-3.473-10.77c2.02-3.934,6.848-5.484,10.77-3.473
		c6.977,3.578,13.344,8.375,18.922,14.266c3.039,3.207,2.902,8.27-0.309,11.309C140.719,58.273,138.742,59,136.766,59z"/>
	<path style="fill:#FFFFFF;" d="M142.574,45.5c-5.578-5.891-11.945-10.688-18.922-14.266c-3.922-2.012-8.75-0.461-10.77,3.473
		c-2.012,3.934-0.461,8.754,3.473,10.77c5.359,2.746,10.273,6.457,14.602,11.023c1.574,1.664,3.691,2.5,5.809,2.5
		c1.977,0,3.953-0.727,5.5-2.191C145.477,53.77,145.613,48.707,142.574,45.5z"/>
	<path style="fill:#FFFFFF;" d="M270.129,51.285c2.852-3.371,2.43-8.418-0.945-11.273c-5.504-4.656-11.586-8.375-18.078-11.059
		c-4.082-1.668-8.766,0.258-10.449,4.34c-1.688,4.082,0.258,8.762,4.34,10.449c3.799,1.568,7.423,3.616,10.818,6.099
		c4.081,0.842,8.07,1.959,11.943,3.342C268.636,52.718,269.448,52.091,270.129,51.285z"/>
	<path style="fill:#FFC26E;" d="M160.003,296h-0.006c-2.026,0-3.921,0.644-5.475,1.75C85.483,216.604,34.025,57.159,112.944,2.09
		C106.76,0.729,100.358,0,93.793,0C41.992,0,0,44.496,0,99.385c0,73.426,78.535,161.17,152.265,200.639
		c-0.789,1.124-1.342,2.434-1.58,3.864l-5.133,30.797c-0.731,4.387,2.244,8.409,6.447,9.174c0.468,0.085,0.948,0.141,1.444,0.141
		h13.113c0.496,0,0.975-0.056,1.444-0.141c4.204-0.765,7.179-4.787,6.447-9.174l-5.133-30.797c-0.238-1.43-0.791-2.74-1.58-3.864
		C166.014,297.57,163.168,296,160.003,296z"/>
	<path style="fill:#FFE6D2;" d="M297.444,392c-0.496,0-0.975-0.056-1.444-0.141V456c0,4.418,3.582,8,8,8h0c4.418,0,8-3.582,8-8
		v-64.141c-0.468,0.085-0.948,0.141-1.444,0.141H297.444z"/>
	<path style="fill:#E86464;" d="M464,147.385C464,92.496,422.007,48,370.207,48c-20.67,0-39.771,7.094-55.272,19.098
		c-3.88,3.005-7.539,6.313-10.935,9.9c-10.086-10.652-22.447-18.888-36.243-23.815c-3.873-1.384-7.862-2.5-11.943-3.342
		C249.981,48.637,243.958,48,237.793,48c6.565,0,12.967,0.729,19.151,2.09c-78.919,55.07-27.461,214.515,41.578,295.661
		c1.553-1.107,3.449-1.75,5.475-1.75h0.006c3.165,0,6.011,1.57,7.732,4.024C385.465,308.555,464,220.811,464,147.385z
		 M256.883,82.707c2.02-3.934,6.848-5.484,10.77-3.473c6.977,3.578,13.344,8.375,18.922,14.266c3.039,3.207,2.902,8.27-0.309,11.309
		c-1.547,1.465-3.523,2.191-5.5,2.191c-2.117,0-4.234-0.836-5.809-2.5c-4.328-4.566-9.242-8.277-14.602-11.023
		C256.422,91.461,254.871,86.641,256.883,82.707z M423.637,112.609c4.102-1.672,8.766,0.285,10.434,4.371
		c3.934,9.609,5.93,19.836,5.93,30.402c0,19.434-6.816,41.168-20.254,64.602c-1.48,2.578-4.176,4.02-6.949,4.02
		c-1.352,0-2.719-0.34-3.973-1.059c-3.832-2.199-5.156-7.09-2.961-10.922C417.73,183.34,424,163.754,424,147.383
		c0-8.477-1.594-16.664-4.734-24.34C417.59,118.953,419.547,114.281,423.637,112.609z M384.656,81.293
		c1.684-4.082,6.367-6.008,10.449-4.34c6.492,2.684,12.574,6.402,18.078,11.059c3.375,2.855,3.797,7.902,0.945,11.273
		c-1.582,1.871-3.84,2.836-6.113,2.836c-1.824,0-3.66-0.621-5.16-1.891c-4.238-3.586-8.902-6.441-13.859-8.488
		C384.914,90.055,382.969,85.375,384.656,81.293z"/>
	<path style="fill:#FF8C87;" d="M424,147.383c0,16.371-6.27,35.957-18.137,56.641c-2.195,3.832-0.871,8.723,2.961,10.922
		c1.254,0.719,2.621,1.059,3.973,1.059c2.773,0,5.469-1.441,6.949-4.02C433.184,188.551,440,166.816,440,147.383
		c0-10.566-1.996-20.793-5.93-30.402c-1.668-4.086-6.332-6.043-10.434-4.371c-4.09,1.672-6.047,6.344-4.371,10.434
		C422.406,130.719,424,138.906,424,147.383z"/>
	<path style="fill:#FF8C87;" d="M260.355,93.477c5.359,2.746,10.273,6.457,14.602,11.023c1.574,1.664,3.691,2.5,5.809,2.5
		c1.977,0,3.953-0.727,5.5-2.191c3.211-3.039,3.348-8.102,0.309-11.309c-5.578-5.891-11.945-10.688-18.922-14.266
		c-3.922-2.012-8.75-0.461-10.77,3.473C254.871,86.641,256.422,91.461,260.355,93.477z"/>
	<path style="fill:#FFBEAF;" d="M408.016,102.121c2.273,0,4.531-0.965,6.113-2.836c2.852-3.371,2.43-8.418-0.945-11.273
		c-5.504-4.656-11.586-8.375-18.078-11.059c-4.082-1.668-8.766,0.258-10.449,4.34c-1.688,4.082,0.258,8.762,4.34,10.449
		c4.957,2.047,9.621,4.902,13.859,8.488C404.355,101.5,406.191,102.121,408.016,102.121z"/>
	<path style="fill:#D2464B;" d="M304.003,344h-0.006c-2.026,0-3.921,0.644-5.475,1.75c-69.04-81.146-120.498-240.591-41.578-295.661
		C250.76,48.729,244.358,48,237.793,48C185.992,48,144,92.496,144,147.385c0,42.038,25.748,88.766,61.593,128.446
		c26.764,29.627,59.154,55.321,90.673,72.194c-0.789,1.124-1.342,2.434-1.58,3.864l-5.133,30.797
		c-0.731,4.387,2.244,8.409,6.447,9.174c0.468,0.085,0.948,0.141,1.444,0.141h13.113c0.496,0,0.975-0.056,1.444-0.141
		c4.204-0.765,7.179-4.787,6.447-9.174l-5.133-30.797c-0.238-1.43-0.791-2.74-1.58-3.864C310.014,345.57,307.168,344,304.003,344z"
		/>
</g>
<g>
</g>
<g>
</g>
<g>
</g>
<g>
</g>
<g>
</g>
<g>
</g>
<g>
</g>
<g>
</g>
<g>
</g>
<g>
</g>
<g>
</g>
<g>
</g>
<g>
</g>
<g>
</g>
<g>
</g>
</svg>
