<?xml version="1.0" encoding="iso-8859-1"?>
<!-- Generator: Adobe Illustrator 19.0.0, SVG Export Plug-In . SVG Version: 6.00 Build 0)  -->
<svg version="1.1" id="Capa_1" xmlns="http://www.w3.org/2000/svg" xmlns:xlink="http://www.w3.org/1999/xlink" x="0px" y="0px"
	 viewBox="0 0 464 464" style="enable-background:new 0 0 464 464;" xml:space="preserve">
<g>
	<path style="fill:#FF8282;" d="M320,448h-1.609C301.633,448,288,434.367,288,417.609v-43.328c0-25.574-20.813-46.387-46.398-46.395
		h-0.285c-0.443,0-0.872,0.045-1.293,0.115c4.389,0.013,7.976,3.607,7.976,7.999c0,3.492-2.271,6.473-5.407,7.558l0.059,0.356
		C258.93,344.48,272,357.881,272,374.281v43.328C272,443.188,292.813,464,318.391,464H320c4.418,0,8-3.582,8-8S324.418,448,320,448z
		"/>
	<path style="fill:#FFE6D2;" d="M225.444,376c-0.496,0-0.975-0.056-1.444-0.141V456c0,4.418,3.582,8,8,8s8-3.582,8-8v-80.141
		c-0.468,0.085-0.948,0.141-1.444,0.141H225.444z"/>
	<path style="fill:#E86464;" d="M240,344h-16c-0.908,0-1.778-0.161-2.593-0.442l-3.854,23.127c-0.731,4.387,2.244,8.409,6.447,9.174
		c0.468,0.085,0.948,0.141,1.444,0.141h13.113c0.496,0,0.975-0.056,1.444-0.141c4.204-0.765,7.179-4.787,6.448-9.174l-3.795-22.771
		l-0.059-0.356C241.778,343.839,240.908,344,240,344z"/>
	<path style="fill:#E86464;" d="M235.918,327.89c-0.416,0.023-0.833,0.037-1.251,0.053
		C235.085,327.928,235.502,327.911,235.918,327.89z"/>
	<path style="fill:#E86464;" d="M160,128c0,94.932,38.288,185.239,87.719,198.318c-3.79,0.783-7.625,1.321-11.507,1.553
		C304.954,324.1,360,228.618,360,128C360,57.308,302.692,0,232,0c5.333,0,10.557,0.429,15.719,1.063
		C198.296,8.826,160,62.641,160,128z M298.141,58.039c3.297-2.953,8.352-2.672,11.297,0.609C326.57,77.758,336,102.383,336,128
		c0,8.203-0.414,16.547-1.227,24.789c-0.406,4.133-3.891,7.219-7.953,7.219c-0.258,0-0.523-0.016-0.789-0.039
		c-4.398-0.43-7.617-4.352-7.18-8.75C319.617,143.492,320,135.68,320,128c0-21.672-7.984-42.508-22.469-58.664
		C294.578,66.039,294.852,60.984,298.141,58.039z M232.615,216c-27.5-12.75-58-44-58-70c0-18.778,15.222-34,34-34
		c9.369,0,17.85,3.791,24,9.92c6.15-6.129,14.631-9.92,24-9.92c18.778,0,34,15.222,34,34C290.616,172,260.115,203.25,232.615,216z
		 M256.469,34.805c1.477-4.164,6.023-6.344,10.219-4.859c6.016,2.141,11.844,4.836,17.328,8.023
		c3.813,2.219,5.117,7.117,2.891,10.938c-1.484,2.555-4.164,3.977-6.922,3.977c-1.367,0-2.75-0.352-4.016-1.086
		c-4.625-2.688-9.547-4.969-14.641-6.773C257.164,43.547,254.992,38.969,256.469,34.805z"/>
	<path style="fill:#D2464B;" d="M235.918,327.89c0.098-0.006,0.196-0.013,0.294-0.019c3.882-0.231,7.717-0.77,11.507-1.553
		C198.288,313.239,160,222.932,160,128c0-65.359,38.296-119.174,87.719-126.938C242.557,0.429,237.333,0,232,0
		c-70.692,0-128,57.308-128,128c0,102.667,57.308,200,128,200c0.892,0,1.78-0.023,2.667-0.057
		C235.085,327.927,235.502,327.913,235.918,327.89z"/>
	<path style="fill:#D2504B;" d="M240,344c0.908,0,1.778-0.161,2.593-0.442c3.136-1.084,5.407-4.065,5.407-7.558
		c0-4.392-3.587-7.986-7.976-7.999c-0.008,0-0.016-0.001-0.023-0.001h-7.997H232h-0.003H224c-4.4,0-8,3.6-8,8
		c0,3.492,2.271,6.473,5.407,7.558c0.815,0.282,1.685,0.442,2.593,0.442H240z"/>
	<path style="fill:#FFE6D2;" d="M256.616,112c-9.369,0-17.85,3.791-24,9.92c-6.15-6.129-14.631-9.92-24-9.92
		c-18.778,0-34,15.222-34,34c0,26,30.5,57.25,58,70c27.5-12.75,58-44,58-70C290.616,127.222,275.393,112,256.616,112z"/>
	<path style="fill:#FF8C87;" d="M320,128c0,7.68-0.383,15.492-1.148,23.219c-0.438,4.398,2.781,8.32,7.18,8.75
		c0.266,0.023,0.531,0.039,0.789,0.039c4.063,0,7.547-3.086,7.953-7.219C335.586,144.547,336,136.203,336,128
		c0-25.617-9.43-50.242-26.563-69.352c-2.945-3.281-8-3.563-11.297-0.609c-3.289,2.945-3.563,8-0.609,11.297
		C312.016,85.492,320,106.328,320,128z"/>
	<path style="fill:#FFBEAF;" d="M261.328,45.023c5.094,1.805,10.016,4.086,14.641,6.773c1.266,0.734,2.648,1.086,4.016,1.086
		c2.758,0,5.438-1.422,6.922-3.977c2.227-3.82,0.922-8.719-2.891-10.938c-5.484-3.188-11.313-5.883-17.328-8.023
		c-4.195-1.484-8.742,0.695-10.219,4.859S257.164,43.547,261.328,45.023z"/>
</g>
<g>
</g>
<g>
</g>
<g>
</g>
<g>
</g>
<g>
</g>
<g>
</g>
<g>
</g>
<g>
</g>
<g>
</g>
<g>
</g>
<g>
</g>
<g>
</g>
<g>
</g>
<g>
</g>
<g>
</g>
</svg>
