<?xml version="1.0" encoding="iso-8859-1"?>
<!-- Generator: Adobe Illustrator 19.0.0, SVG Export Plug-In . SVG Version: 6.00 Build 0)  -->
<svg version="1.1" id="Capa_1" xmlns="http://www.w3.org/2000/svg" xmlns:xlink="http://www.w3.org/1999/xlink" x="0px" y="0px"
	 viewBox="0 0 464 464" style="enable-background:new 0 0 464 464;" xml:space="preserve">
<g>
	<path style="fill:#D2504B;" d="M192,96c0,0.465-0.017,0.927-0.043,1.386C194.472,96.491,197.178,96,200,96
		c13.255,0,24,10.745,24,24c0,2.822-0.491,5.528-1.385,8.042c0.459-0.026,0.92-0.042,1.385-0.042c2.806,0,5.497,0.486,8,1.371
		c2.503-0.885,5.194-1.371,8-1.371c0.465,0,0.927,0.017,1.385,0.042C240.491,125.528,240,122.822,240,120c0-13.255,10.745-24,24-24
		c2.822,0,5.528,0.491,8.043,1.386C272.017,96.927,272,96.465,272,96c0-10.13,6.28-18.788,15.156-22.31
		C284.384,63.498,275.07,56,264,56c-3.701,0-7.205,0.839-10.335,2.335C255.161,55.205,256,51.701,256,48c0-13.255-10.745-24-24-24
		s-24,10.745-24,24c0,3.701,0.839,7.205,2.335,10.335C207.205,56.839,203.701,56,200,56c-11.07,0-20.384,7.498-23.156,17.69
		C185.72,77.212,192,85.87,192,96z M232,56c13.255,0,24,10.745,24,24s-10.745,24-24,24s-24-10.745-24-24S218.745,56,232,56z"/>
	<circle style="fill:#BE3C3C;" cx="232" cy="80" r="24"/>
	<path style="fill:#E88470;" d="M118.116,168c-3.802-4.246-6.116-9.852-6.116-16c0-13.255,10.745-24,24-24
		c3.701,0,7.205,0.839,10.335,2.335C144.839,127.205,144,123.701,144,120c0-13.255,10.745-24,24-24s24,10.745,24,24
		c0,3.701-0.839,7.205-2.335,10.335c3.13-1.496,6.634-2.335,10.335-2.335c8.35,0,15.701,4.266,20,10.735c-2.526,3.8-4,8.36-4,13.265
		s1.474,9.464,4,13.265c-0.64,0.963-1.347,1.877-2.116,2.735h28.232c-3.802-4.246-6.116-9.852-6.116-16c0-13.255,10.745-24,24-24
		c3.701,0,7.205,0.839,10.335,2.335C272.839,127.205,272,123.701,272,120c0-13.255,10.745-24,24-24s24,10.745,24,24
		c0,3.701-0.839,7.205-2.335,10.335c3.13-1.496,6.634-2.335,10.335-2.335c13.255,0,24,10.745,24,24c0,6.148-2.314,11.754-6.116,16
		h20.223c1.158,0,2.215,0.246,3.167,0.652C373.436,164.336,376,158.469,376,152c0-13.255-10.745-24-24-24
		c-0.465,0-0.927,0.017-1.385,0.042c0.894-2.515,1.385-5.221,1.385-8.042c0-13.255-10.745-24-24-24
		c-2.822,0-5.528,0.491-8.043,1.386C319.983,96.927,320,96.465,320,96c0-7.148-3.128-13.562-8.086-17.958
		C310.916,65.704,300.595,56,288,56c-0.465,0-0.927,0.017-1.385,0.042C287.509,53.528,288,50.822,288,48c0-13.255-10.745-24-24-24
		c-2.822,0-5.528,0.491-8.043,1.386C255.983,24.927,256,24.465,256,24c0-13.255-10.745-24-24-24s-24,10.745-24,24
		c0,0.465,0.017,0.927,0.043,1.386C205.528,24.491,202.822,24,200,24c-13.255,0-24,10.745-24,24c0,2.822,0.491,5.528,1.385,8.042
		C176.927,56.017,176.465,56,176,56c-12.595,0-22.916,9.704-23.914,22.042C147.128,82.438,144,88.852,144,96
		c0,0.465,0.017,0.927,0.043,1.386C141.528,96.491,138.822,96,136,96c-13.255,0-24,10.745-24,24c0,2.822,0.491,5.528,1.385,8.042
		c-0.459-0.026-0.92-0.042-1.385-0.042c-13.255,0-24,10.745-24,24c0,6.469,2.564,12.336,6.726,16.652
		c0.952-0.406,2.008-0.652,3.167-0.652H118.116z M200,56c3.701,0,7.205,0.839,10.335,2.335C208.839,55.205,208,51.701,208,48
		c0-13.255,10.745-24,24-24s24,10.745,24,24c0,3.701-0.839,7.205-2.335,10.335C256.795,56.839,260.299,56,264,56
		c11.07,0,20.384,7.498,23.156,17.69C278.28,77.212,272,85.87,272,96c0,0.465,0.017,0.927,0.043,1.386
		C269.528,96.491,266.822,96,264,96c-13.255,0-24,10.745-24,24c0,2.822,0.491,5.528,1.385,8.042
		c-0.459-0.026-0.92-0.042-1.385-0.042c-2.806,0-5.497,0.486-8,1.371c-2.503-0.885-5.194-1.371-8-1.371
		c-0.465,0-0.927,0.017-1.385,0.042c0.894-2.515,1.385-5.221,1.385-8.042c0-13.255-10.745-24-24-24
		c-2.822,0-5.528,0.491-8.043,1.386C191.983,96.927,192,96.465,192,96c0-10.13-6.28-18.788-15.156-22.31
		C179.616,63.498,188.93,56,200,56z"/>
	<path style="fill:#D2504B;" d="M216,152c0-4.905,1.474-9.464,4-13.265C215.701,132.266,208.35,128,200,128
		c-3.701,0-7.205,0.839-10.335,2.335c1.496-3.13,2.335-6.634,2.335-10.335c0-13.255-10.745-24-24-24s-24,10.745-24,24
		c0,3.701,0.839,7.205,2.335,10.335C143.205,128.839,139.701,128,136,128c-13.255,0-24,10.745-24,24c0,6.148,2.314,11.754,6.116,16
		h32c-3.802-4.246-6.116-9.852-6.116-16c0-13.255,10.745-24,24-24s24,10.745,24,24c0,6.148-2.314,11.754-6.116,16h32
		c0.769-0.858,1.476-1.772,2.116-2.735C217.474,161.464,216,156.905,216,152z"/>
	<path style="fill:#BE3C3C;" d="M192,152c0-13.255-10.745-24-24-24s-24,10.745-24,24c0,6.148,2.314,11.754,6.116,16H184h1.884
		C189.686,163.754,192,158.148,192,152z"/>
	<path style="fill:#D2504B;" d="M328,128c-3.701,0-7.205,0.839-10.335,2.335c1.496-3.13,2.335-6.634,2.335-10.335
		c0-13.255-10.745-24-24-24s-24,10.745-24,24c0,3.701,0.839,7.205,2.335,10.335C271.205,128.839,267.701,128,264,128
		c-13.255,0-24,10.745-24,24c0,6.148,2.314,11.754,6.116,16h32c-3.802-4.246-6.116-9.852-6.116-16c0-13.255,10.745-24,24-24
		s24,10.745,24,24c0,6.148-2.314,11.754-6.116,16h32c3.802-4.246,6.116-9.852,6.116-16C352,138.745,341.255,128,328,128z"/>
	<path style="fill:#BE3C3C;" d="M320,152c0-13.255-10.745-24-24-24s-24,10.745-24,24c0,6.148,2.314,11.754,6.116,16h35.768
		C317.686,163.754,320,158.148,320,152z"/>
	<path style="fill:#73AA82;" d="M224,456c0,4.418,3.582,8,8,8s8-3.582,8-8v-40h-16V456z"/>
	<path style="fill:#BE6E4B;" d="M216,320v8l16-8C227.2,320,222.4,320,216,320z"/>
	<polygon style="fill:#BE6E4B;" points="216,360 248,344 248,328 216,344 	"/>
	<polygon style="fill:#BE6E4B;" points="216,392 248,376 248,360 216,376 	"/>
	<path style="fill:#BE6E4B;" d="M216,408c0,4.418,3.582,8,8,8h16c4.418,0,8-3.582,8-8v-16L216,408z"/>
	<path style="fill:#FFE6D2;" d="M369.274,168.652c-0.952-0.407-2.008-0.652-3.167-0.652h-20.223h-32h-35.768h-32h-28.232h-32H184
		l48,152c4.8,0,9.601,0,16,0l124.069-138.666C375.908,177.044,374.005,170.672,369.274,168.652z"/>
	<polygon style="fill:#D2875A;" points="216,408 248,392 248,376 216,392 	"/>
	<polygon style="fill:#D2875A;" points="216,376 248,360 248,344 216,360 	"/>
	<path style="fill:#D2875A;" d="M216,328v16l32-16v-8c-6.399,0-11.2,0-16,0L216,328z"/>
	<path style="fill:#FFD7B4;" d="M184,168h-33.884h-32H97.893c-1.158,0-2.215,0.246-3.167,0.652
		c-4.731,2.02-6.634,8.392-2.795,12.682L216,320c6.4,0,11.2,0,16,0L184,168z"/>
</g>
<g>
</g>
<g>
</g>
<g>
</g>
<g>
</g>
<g>
</g>
<g>
</g>
<g>
</g>
<g>
</g>
<g>
</g>
<g>
</g>
<g>
</g>
<g>
</g>
<g>
</g>
<g>
</g>
<g>
</g>
</svg>
