<?xml version="1.0" encoding="iso-8859-1"?>
<!-- Generator: Adobe Illustrator 19.0.0, SVG Export Plug-In . SVG Version: 6.00 Build 0)  -->
<svg version="1.1" id="Capa_1" xmlns="http://www.w3.org/2000/svg" xmlns:xlink="http://www.w3.org/1999/xlink" x="0px" y="0px"
	 viewBox="0 0 464 464" style="enable-background:new 0 0 464 464;" xml:space="preserve">
<g>
	<path style="fill:#FFEBE1;" d="M136,224.293c0-0.694,0.098-1.364,0.264-2.005c-5.744-26.123-5.658-65.573-5.607-87.799l0.001-0.468
		c-1.396,0.864-2.801,1.63-4.186,2.272c-1.262-0.585-2.541-1.274-3.814-2.045l0,0.225c-0.08,37.585,0.704,77.969,9.159,101.394
		c-24.078-16.184-35.875-31.452-39.806-51.095c-1.32,0.766-2.641,1.458-3.949,2.065c-1.398-0.648-2.811-1.398-4.222-2.227
		c1.845,10.37,5.554,19.322,10.842,27.323c-23.727-17.121-45.583-39.928-45.674-78.066c-1.414,0.769-2.826,1.484-4.227,2.134
		c-1.251-0.58-2.511-1.214-3.773-1.89c0.244,54.17,41.326,80.145,71.346,99.12c9.271,5.861,17.835,11.278,23.648,16.6V224.293z"/>
	<path style="fill:#55323C;" d="M158.63,280.293H176l-5.795-23.182c-1.296-5.182-5.952-8.818-11.294-8.818h0
		c-2.624,0-4.994,0.868-6.91,2.29v28.252C154.064,279.776,156.318,280.293,158.63,280.293z"/>
	<path style="fill:#DEE1E9;" d="M147.318,275.608c1.365,1.365,2.959,2.442,4.682,3.228v-28.252v-26.29c0-4.418-3.582-8-8-8
		c-3.724,0-6.845,2.549-7.736,5.995c-0.166,0.642-0.264,1.312-0.264,2.005v25.538v14.462l0.001,0L147.318,275.608z"/>
	<path style="fill:#D2504B;" d="M456,303.324c0-8.449-6.569-15.442-15.002-15.969L328,280.293h-18.725
		c-3.2,0-6.093-1.907-7.353-4.849L272,216.293h19.841c0.066,0.041,0.122,0.075,0.183,0.113c-2.829-4.993-8.131-8.113-13.912-8.113
		h-14.104c-5.586,0-9.452,5.579-7.491,10.809l27.947,61.191H176h-17.37c-2.312,0-4.566-0.517-6.63-1.458
		c-1.723-0.786-3.317-1.863-4.682-3.228l-11.317-11.315l-0.001,0L22.015,278.541C14.009,279.542,8,286.348,8,294.417v9.875h448
		V303.324z"/>
	<path style="fill:#BE3C3C;" d="M32,344.293h10.742c6.591-18.641,24.36-32,45.258-32s38.667,13.359,45.258,32H152c0,0,0,0,0,0
		c0-4.418,3.582-8,8-8h152c4.418,0,8,3.582,8,8c0,0,0,0,0,0.001h18.742c6.591-18.641,24.36-32,45.258-32s38.667,13.359,45.258,32
		H440v0c0-4.418,3.582-8,8-8h8v-32H8v32h16C28.418,336.293,32,339.875,32,344.293z"/>
	<path style="fill:#823C41;" d="M440,344.293h-10.742c1.77,5.006,2.742,10.388,2.742,16c0,2.727-0.239,5.397-0.676,8H448
		c4.418,0,8-3.582,8-8v-8v0h-8C443.582,352.293,440,348.711,440,344.293z"/>
	<path style="fill:#823C41;" d="M338.742,344.293H320c0,4.418-3.582,7.999-8,7.999H160c-4.418,0-8-3.581-8-7.999h-18.742
		c1.77,5.006,2.742,10.388,2.742,16c0,2.727-0.239,5.397-0.676,8h201.353c-0.437-2.603-0.676-5.273-0.676-8
		C336,354.681,336.972,349.298,338.742,344.293z"/>
	<path style="fill:#823C41;" d="M42.742,344.293H32c0,4.418-3.582,8-8,8H8c0,8.836,7.164,16,16,16h16.676
		c-0.437-2.603-0.676-5.273-0.676-8C40,354.681,40.972,349.298,42.742,344.293z"/>
	<path style="fill:#55323C;" d="M429.258,344.293c-6.591-18.641-24.36-32-45.258-32s-38.667,13.359-45.258,32
		c-1.77,5.006-2.742,10.388-2.742,16c0,2.727,0.239,5.397,0.676,8c3.81,22.7,23.541,40,47.324,40s43.513-17.3,47.324-40
		c0.437-2.603,0.676-5.273,0.676-8C432,354.681,431.028,349.298,429.258,344.293z M384,392.293c-17.673,0-32-14.327-32-32
		s14.327-32,32-32s32,14.327,32,32S401.673,392.293,384,392.293z"/>
	<path style="fill:#DEE1E9;" d="M384,328.293c-17.673,0-32,14.327-32,32s14.327,32,32,32s32-14.327,32-32
		S401.673,328.293,384,328.293z M384,376.293c-8.837,0-16-7.163-16-16s7.163-16,16-16s16,7.163,16,16S392.837,376.293,384,376.293z"
		/>
	<circle style="fill:#FFFFFF;" cx="384" cy="360.293" r="16"/>
	<path style="fill:#55323C;" d="M133.258,344.293c-6.591-18.641-24.36-32-45.258-32s-38.667,13.359-45.258,32
		c-1.77,5.006-2.742,10.388-2.742,16c0,2.727,0.239,5.397,0.676,8c3.81,22.7,23.541,40,47.324,40s43.513-17.3,47.324-40
		c0.437-2.603,0.676-5.273,0.676-8C136,354.681,135.028,349.298,133.258,344.293z M88,392.293c-17.673,0-32-14.327-32-32
		s14.327-32,32-32s32,14.327,32,32S105.673,392.293,88,392.293z"/>
	<path style="fill:#DEE1E9;" d="M88,328.293c-17.673,0-32,14.327-32,32s14.327,32,32,32s32-14.327,32-32S105.673,328.293,88,328.293
		z M88,376.293c-8.837,0-16-7.163-16-16s7.163-16,16-16s16,7.163,16,16S96.837,376.293,88,376.293z"/>
	<circle style="fill:#FFFFFF;" cx="88" cy="360.293" r="16"/>
	<path style="fill:#55323C;" d="M272,216.293l29.922,59.151c1.261,2.941,4.153,4.849,7.353,4.849H328l-35.928-63.857
		c-0.017-0.011-0.032-0.02-0.048-0.03c-0.061-0.038-0.117-0.072-0.183-0.113H272z"/>
	<path style="fill:#D2504B;" d="M312,336.292H160c-4.418,0-8,3.582-8,8c0,0,0,0,0,0.001c0,4.418,3.582,7.999,8,7.999h152
		c4.418,0,8-3.581,8-7.999c0,0,0,0,0,0C320,339.874,316.418,336.292,312,336.292z"/>
	<path style="fill:#D2504B;" d="M456,336.293L456,336.293h-8c-4.418,0-8,3.582-8,8v0c0,4.418,3.582,8,8,8h8h0c4.418,0,8-3.582,8-8
		C464,339.874,460.418,336.293,456,336.293z"/>
	<path style="fill:#D2504B;" d="M24,352.293c4.418,0,8-3.582,8-8s-3.582-8-8-8H8c-4.418,0-8,3.582-8,8s3.582,8,8,8H24z"/>
	<path style="fill:#E86464;" d="M88.061,186.836c1.307-0.606,2.629-1.299,3.949-2.065c12.353-7.163,24.612-20.838,24.612-32.405
		c0-9.247-7.496-16.743-16.743-16.743c-4.613,0-8.79,1.867-11.818,4.885c-2.259-2.251-5.158-3.86-8.4-4.533
		C65.203,145.497,75.258,173.54,88.061,186.836z"/>
	<path style="fill:#E86464;" d="M78.007,135.718c0.56,0.059,1.111,0.145,1.653,0.257C79.119,135.863,78.567,135.777,78.007,135.718z
		"/>
	<path style="fill:#E86464;" d="M76.242,135.623c0.586,0,1.164,0.031,1.734,0.09C77.406,135.655,76.828,135.623,76.242,135.623z"/>
	<path style="fill:#D2464B;" d="M79.661,135.975L79.661,135.975L79.661,135.975c-0.542-0.113-1.094-0.198-1.654-0.257
		c-0.01-0.001-0.02-0.004-0.031-0.005c-0.57-0.059-1.148-0.09-1.734-0.09c-9.247,0-16.742,7.496-16.742,16.743
		c0,11.481,12.079,25.037,24.338,32.242c1.411,0.829,2.825,1.579,4.222,2.227C75.258,173.54,65.203,145.497,79.661,135.975z"/>
	<path style="fill:#E86464;" d="M118.561,96.075c0.44,0.047,0.874,0.114,1.301,0.202C119.436,96.188,119.002,96.121,118.561,96.075z
		"/>
	<path style="fill:#E86464;" d="M117.173,96c0.461,0,0.916,0.024,1.364,0.071C118.088,96.025,117.633,96,117.173,96z"/>
	<path style="fill:#E86464;" d="M126.471,136.293c1.385-0.642,2.79-1.408,4.186-2.272c9.341-5.784,18.285-16.084,18.285-24.848
		c0-7.275-5.898-13.173-13.173-13.173c-3.63,0-6.916,1.469-9.298,3.844c-1.777-1.771-4.058-3.037-6.609-3.567
		C108.487,103.768,116.398,125.832,126.471,136.293z"/>
	<path style="fill:#D2464B;" d="M119.862,96.277L119.862,96.277L119.862,96.277c-0.427-0.089-0.861-0.156-1.301-0.202
		c-0.008-0.001-0.016-0.003-0.025-0.004c-0.448-0.047-0.903-0.071-1.364-0.071C109.898,96,104,101.898,104,109.173
		c0,8.88,9.183,19.337,18.657,25.075c1.273,0.771,2.552,1.46,3.814,2.045C116.398,125.832,108.487,103.768,119.862,96.277z"/>
	<path style="fill:#E86464;" d="M44.779,136c1.401-0.65,2.813-1.365,4.227-2.134c20.01-10.88,40.552-33.161,40.552-51.909
		c0-14.497-11.752-26.25-26.25-26.25c-7.233,0-13.781,2.927-18.529,7.659c-4.748-4.732-11.296-7.659-18.529-7.659
		c1.837,0,3.629,0.193,5.36,0.552C8.942,71.187,24.706,115.155,44.779,136z"/>
	<path style="fill:#D2464B;" d="M31.609,56.259c-1.731-0.359-3.522-0.552-5.36-0.552C11.752,55.707,0,67.46,0,81.957
		c0,18.89,20.854,41.366,41.006,52.154c1.262,0.676,2.522,1.309,3.773,1.89C24.706,115.155,8.942,71.187,31.609,56.259z"/>
</g>
<g>
</g>
<g>
</g>
<g>
</g>
<g>
</g>
<g>
</g>
<g>
</g>
<g>
</g>
<g>
</g>
<g>
</g>
<g>
</g>
<g>
</g>
<g>
</g>
<g>
</g>
<g>
</g>
<g>
</g>
</svg>
