<?xml version="1.0" encoding="iso-8859-1"?>
<!-- Generator: Adobe Illustrator 19.0.0, SVG Export Plug-In . SVG Version: 6.00 Build 0)  -->
<svg version="1.1" id="Capa_1" xmlns="http://www.w3.org/2000/svg" xmlns:xlink="http://www.w3.org/1999/xlink" x="0px" y="0px"
	 viewBox="0 0 464 464" style="enable-background:new 0 0 464 464;" xml:space="preserve">
<g>
	<path style="fill:#C88C73;" d="M48,208c-4.418,0-8,3.582-8,8s3.582,8,8,8h50.112c-0.932-5.235-1.557-10.576-1.871-16H48z"/>
	<path style="fill:#C88C73;" d="M416,224c4.418,0,8-3.582,8-8s-3.582-8-8-8h-48.24c-0.315,5.424-0.939,10.765-1.871,16H416z"/>
	<path style="fill:#9EDCF1;" d="M359.083,248.509c-17.105,1.906-32.6,9.216-44.724,20.193l20.393,20.393
		C345.077,277.199,353.362,263.488,359.083,248.509z"/>
	<path style="fill:#9EDCF1;" d="M175.897,323.923c-0.959-19.018-8.594-36.305-20.599-49.564l-20.622,20.622
		C146.424,307.017,160.379,316.887,175.897,323.923z"/>
	<path style="fill:#9EDCF1;" d="M329.324,294.981l-20.622-20.622c-12.006,13.259-19.64,30.546-20.599,49.564
		C303.621,316.887,317.576,307.017,329.324,294.981z"/>
	<path style="fill:#9EDCF1;" d="M184,289.654V96c0-13.255,10.745-24,24-24h48c13.255,0,24,10.745,24,24v193.654
		c14.348-32.801,46.51-56.091,84.183-57.572c0.645-2.666,1.22-5.358,1.705-8.083c0.932-5.235,1.557-10.576,1.871-16
		c0.154-2.648,0.24-5.313,0.24-8V56H96v144c0,2.686,0.087,5.352,0.24,8c0.315,5.424,0.939,10.765,1.871,16
		c0.485,2.724,1.06,5.417,1.705,8.083C137.49,233.563,169.652,256.854,184,289.654z M296,96c0-4.418,3.582-8,8-8h40
		c4.418,0,8,3.582,8,8v72c0,17.673-14.327,32-32,32h-16c-4.418,0-8-3.582-8-8V96z M144,200c-17.673,0-32-14.327-32-32V96
		c0-4.418,3.582-8,8-8h40c4.418,0,8,3.582,8,8v96c0,4.418-3.582,8-8,8H144z"/>
	<path style="fill:#9EDCF1;" d="M149.641,268.703c-12.124-10.978-27.619-18.287-44.724-20.193
		c5.721,14.979,14.006,28.69,24.33,40.587L149.641,268.703z"/>
	<path style="fill:#82C8DC;" d="M256,72h-48c-13.255,0-24,10.745-24,24v193.654c4.124,9.428,6.776,19.639,7.664,30.346h80.672
		c0.887-10.706,3.54-20.918,7.664-30.346V96C280,82.745,269.255,72,256,72z M264,192c0,4.418-3.582,8-8,8h-48c-4.418,0-8-3.582-8-8
		V96c0-4.418,3.582-8,8-8h48c4.418,0,8,3.582,8,8V192z"/>
	<path style="fill:#6E8CAA;" d="M256,88h-48c-4.418,0-8,3.582-8,8v96c0,4.418,3.582,8,8,8h48c4.418,0,8-3.582,8-8V96
		C264,91.582,260.418,88,256,88z"/>
	<path style="fill:#6E8CAA;" d="M304,200h16c17.673,0,32-14.327,32-32V96c0-4.418-3.582-8-8-8h-40c-4.418,0-8,3.582-8,8v96
		C296,196.418,299.582,200,304,200z"/>
	<path style="fill:#6E8CAA;" d="M168,192V96c0-4.418-3.582-8-8-8h-40c-4.418,0-8,3.582-8,8v72c0,17.673,14.327,32,32,32h16
		C164.418,200,168,196.418,168,192z"/>
	<path style="fill:#C88C73;" d="M376,48c0-4.418-3.582-8-8-8H96c-4.418,0-8,3.582-8,8s3.582,8,8,8h272C372.418,56,376,52.418,376,48
		z"/>
	<path style="fill:#823C41;" d="M96,352c-1.364,0-2.699-0.12-4-0.338v56.237c1.325,0.066,2.659,0.102,4,0.102s2.675-0.036,4-0.102
		v-56.237C98.699,351.88,97.364,352,96,352z"/>
	<path style="fill:#823C41;" d="M96,304c1.364,0,2.699,0.12,4,0.338v-56.237c-1.325-0.066-2.659-0.102-4-0.102s-2.675,0.036-4,0.102
		v56.237C93.301,304.12,94.636,304,96,304z"/>
	<path style="fill:#823C41;" d="M72,328c0-1.364,0.12-2.698,0.338-4H16.102c-0.066,1.325-0.102,2.659-0.102,4s0.036,2.675,0.102,4
		h56.237C72.12,330.698,72,329.364,72,328z"/>
	<path style="fill:#823C41;" d="M120,328c0,1.364-0.12,2.698-0.338,4h56.237c0.066-1.325,0.102-2.659,0.102-4s-0.036-2.675-0.102-4
		h-56.237C119.88,325.302,120,326.636,120,328z"/>
	<path style="fill:#823C41;" d="M109.901,308.442c2.187,1.557,4.1,3.47,5.657,5.657l19.118-19.118l20.622-20.622
		c-1.791-1.978-3.679-3.866-5.657-5.657l-20.393,20.393L109.901,308.442z"/>
	<path style="fill:#823C41;" d="M76.442,341.901l-39.739,39.74c1.791,1.978,3.679,3.866,5.657,5.657l39.739-39.739
		C79.912,346.001,77.999,344.088,76.442,341.901z"/>
	<path style="fill:#823C41;" d="M82.099,308.442l-39.739-39.739c-1.978,1.791-3.866,3.679-5.657,5.657l39.739,39.74
		C77.999,311.912,79.912,309.999,82.099,308.442z"/>
	<path style="fill:#823C41;" d="M109.901,347.558l39.739,39.739c1.978-1.791,3.866-3.679,5.657-5.657l-39.739-39.74
		C114.001,344.088,112.088,346.001,109.901,347.558z"/>
	<path style="fill:#C88C73;" d="M119.662,324c-0.612-3.646-2.045-7.01-4.104-9.901c-1.557-2.187-3.47-4.1-5.657-5.657
		c-2.891-2.059-6.256-3.492-9.901-4.104C98.699,304.12,97.364,304,96,304s-2.699,0.12-4,0.338c-3.646,0.612-7.01,2.045-9.901,4.104
		c-2.187,1.557-4.1,3.47-5.657,5.657c-2.059,2.891-3.492,6.256-4.104,9.901C72.12,325.302,72,326.636,72,328s0.12,2.698,0.338,4
		c0.612,3.646,2.045,7.01,4.104,9.901c1.557,2.187,3.47,4.1,5.657,5.657c2.891,2.059,6.256,3.492,9.901,4.104
		c1.301,0.218,2.636,0.338,4,0.338s2.699-0.12,4-0.338c3.646-0.612,7.01-2.045,9.901-4.104c2.187-1.557,4.1-3.47,5.657-5.657
		c2.059-2.891,3.492-6.256,4.104-9.901c0.218-1.302,0.338-2.636,0.338-4S119.88,325.302,119.662,324z M88,328c0-4.418,3.582-8,8-8
		s8,3.582,8,8s-3.582,8-8,8S88,332.418,88,328z"/>
	<circle style="fill:#823C41;" cx="96" cy="328" r="8"/>
	<path style="fill:#823C41;" d="M368,352c-1.364,0-2.699-0.12-4-0.338v56.237c1.325,0.066,2.659,0.102,4,0.102s2.675-0.036,4-0.102
		v-56.237C370.699,351.88,369.364,352,368,352z"/>
	<path style="fill:#823C41;" d="M368,304c1.364,0,2.699,0.12,4,0.338v-56.237c-1.325-0.066-2.659-0.102-4-0.102
		s-2.675,0.036-4,0.102v56.237C365.301,304.12,366.636,304,368,304z"/>
	<path style="fill:#823C41;" d="M344,328c0-1.364,0.12-2.698,0.338-4h-56.237c-0.066,1.325-0.102,2.659-0.102,4s0.036,2.675,0.102,4
		h56.237C344.12,330.698,344,329.364,344,328z"/>
	<path style="fill:#823C41;" d="M392,328c0,1.364-0.12,2.698-0.338,4h56.237c0.066-1.325,0.102-2.659,0.102-4s-0.036-2.675-0.102-4
		h-56.237C391.88,325.302,392,326.636,392,328z"/>
	<path style="fill:#823C41;" d="M348.442,341.901l-39.739,39.74c1.791,1.978,3.679,3.866,5.657,5.657l39.739-39.739
		C351.912,346.001,349.999,344.088,348.442,341.901z"/>
	<path style="fill:#823C41;" d="M387.558,314.099l39.739-39.74c-1.791-1.978-3.679-3.866-5.657-5.657l-39.739,39.739
		C384.088,309.999,386.001,311.912,387.558,314.099z"/>
	<path style="fill:#823C41;" d="M348.442,314.099c1.557-2.187,3.47-4.1,5.657-5.657l-19.346-19.346l-20.393-20.393
		c-1.978,1.791-3.866,3.679-5.657,5.657l20.622,20.622L348.442,314.099z"/>
	<path style="fill:#823C41;" d="M381.901,347.558l39.739,39.739c1.978-1.791,3.866-3.679,5.657-5.657l-39.739-39.74
		C386.001,344.088,384.088,346.001,381.901,347.558z"/>
	<path style="fill:#C88C73;" d="M391.662,324c-0.612-3.646-2.045-7.01-4.104-9.901c-1.557-2.187-3.47-4.1-5.657-5.657
		c-2.891-2.059-6.256-3.492-9.901-4.104c-1.301-0.218-2.636-0.338-4-0.338s-2.699,0.12-4,0.338c-3.646,0.612-7.01,2.045-9.901,4.104
		c-2.187,1.557-4.1,3.47-5.657,5.657c-2.059,2.891-3.492,6.256-4.104,9.901c-0.218,1.302-0.338,2.636-0.338,4s0.12,2.698,0.338,4
		c0.612,3.646,2.045,7.01,4.104,9.901c1.557,2.187,3.47,4.1,5.657,5.657c2.891,2.059,6.256,3.492,9.901,4.104
		c1.301,0.218,2.636,0.338,4,0.338s2.699-0.12,4-0.338c3.646-0.612,7.01-2.045,9.901-4.104c2.187-1.557,4.1-3.47,5.657-5.657
		c2.059-2.891,3.492-6.256,4.104-9.901c0.218-1.302,0.338-2.636,0.338-4S391.88,325.302,391.662,324z M360,328c0-4.418,3.582-8,8-8
		s8,3.582,8,8s-3.582,8-8,8S360,332.418,360,328z"/>
	<circle style="fill:#823C41;" cx="368" cy="328" r="8"/>
	<path style="fill:#C88C73;" d="M368,232c-1.279,0-2.55,0.033-3.817,0.083c-37.674,1.481-69.836,24.771-84.183,57.572
		c-4.124,9.428-6.776,19.639-7.664,30.346h-80.672c-0.887-10.706-3.54-20.918-7.664-30.346
		c-14.348-32.801-46.51-56.091-84.183-57.572C98.55,232.033,97.279,232,96,232c-52.934,0-96,43.063-96,96s43.066,96,96,96
		c50.24,0,91.585-38.792,95.664-88H232h0h40.336c4.079,49.208,45.424,88,95.664,88c52.934,0,96-43.063,96-96S420.934,232,368,232z
		 M155.297,381.641c-1.791,1.978-3.679,3.866-5.657,5.657c-13.276,12.021-30.592,19.658-49.641,20.601
		c-1.325,0.066-2.659,0.102-4,0.102s-2.675-0.036-4-0.102c-19.049-0.943-36.364-8.58-49.641-20.601
		c-1.978-1.791-3.866-3.679-5.657-5.657C24.681,368.364,17.044,351.048,16.102,332c-0.066-1.325-0.102-2.659-0.102-4
		s0.036-2.675,0.102-4c0.943-19.048,8.579-36.364,20.601-49.641c1.791-1.978,3.679-3.866,5.657-5.657
		C55.636,256.681,72.951,249.044,92,248.102c1.325-0.066,2.659-0.102,4-0.102s2.675,0.036,4,0.102
		c1.654,0.082,3.291,0.226,4.917,0.408c17.105,1.906,32.6,9.216,44.724,20.193c1.978,1.791,3.866,3.679,5.657,5.657
		c12.006,13.259,19.64,30.546,20.599,49.564c0.001,0.025,0.001,0.051,0.002,0.077c0.066,1.325,0.102,2.659,0.102,4
		s-0.036,2.675-0.102,4C174.956,351.048,167.319,368.364,155.297,381.641z M427.297,381.641c-1.791,1.978-3.679,3.866-5.657,5.657
		c-13.276,12.021-30.592,19.658-49.641,20.601c-1.325,0.066-2.659,0.102-4,0.102s-2.675-0.036-4-0.102
		c-19.049-0.943-36.364-8.58-49.641-20.601c-1.978-1.791-3.866-3.679-5.657-5.657c-12.022-13.277-19.658-30.593-20.601-49.641
		c-0.066-1.325-0.102-2.659-0.102-4s0.036-2.675,0.102-4c0.001-0.025,0.001-0.051,0.002-0.077
		c0.959-19.018,8.594-36.305,20.599-49.564c1.791-1.978,3.679-3.866,5.657-5.657c12.124-10.978,27.619-18.287,44.724-20.193
		c1.626-0.181,3.263-0.326,4.917-0.408c1.325-0.066,2.659-0.102,4-0.102s2.675,0.036,4,0.102
		c19.049,0.943,36.364,8.58,49.641,20.601c1.978,1.791,3.866,3.679,5.657,5.657c12.022,13.277,19.658,30.593,20.601,49.641
		c0.066,1.325,0.102,2.659,0.102,4s-0.036,2.675-0.102,4C446.956,351.048,439.319,368.364,427.297,381.641z"/>
</g>
<g>
</g>
<g>
</g>
<g>
</g>
<g>
</g>
<g>
</g>
<g>
</g>
<g>
</g>
<g>
</g>
<g>
</g>
<g>
</g>
<g>
</g>
<g>
</g>
<g>
</g>
<g>
</g>
<g>
</g>
</svg>
