<?xml version="1.0" encoding="iso-8859-1"?>
<!-- Generator: Adobe Illustrator 19.0.0, SVG Export Plug-In . SVG Version: 6.00 Build 0)  -->
<svg version="1.1" id="Capa_1" xmlns="http://www.w3.org/2000/svg" xmlns:xlink="http://www.w3.org/1999/xlink" x="0px" y="0px"
	 viewBox="0 0 464 464" style="enable-background:new 0 0 464 464;" xml:space="preserve">
<g>
	<path style="fill:#64826E;" d="M274.325,168h-0.02c0.19,0.508,0.369,1.02,0.562,1.527C274.675,169.022,274.515,168.506,274.325,168
		z"/>
	<path style="fill:#64826E;" d="M189.675,168c-0.189,0.506-0.35,1.022-0.542,1.527c0.193-0.507,0.37-1.019,0.559-1.527H189.675z"/>
	<path style="fill:#64826E;" d="M305.325,249.479l-26.836-70.445l1.787,4.69l-36.962,36.962c-6.248,6.248-16.379,6.248-22.627,0
		L206.17,206.17l0,0l0,0l-7.499,43.309c-3.912,22.591-6.123,46.408-6.575,70.521h0.095H288c8.837,0,16,7.163,16,16v80
		c0,8.837-7.163,16-16,16h-96c0,17.673,6.512,32,14.545,32H288c17.673,0,32-14.327,32-32V329.222
		C320,301.969,315.027,274.946,305.325,249.479z"/>
	<path style="fill:#55646E;" d="M191.154,164.032c0.363-1.017,0.713-2.038,1.064-3.058c0.241-0.699,0.483-1.398,0.719-2.099
		c0.506-1.51,1.003-3.023,1.483-4.541c0-0.001,0.001-0.003,0.001-0.004c2.172-6.872,4.079-13.82,5.736-20.824
		c-1.177,4.942-2.482,9.855-3.916,14.734c-1.04,3.535-2.136,7.054-3.297,10.554c-1.037,3.083-2.116,6.154-3.252,9.206
		c-0.189,0.508-0.366,1.02-0.559,1.527C189.828,167.702,190.497,165.869,191.154,164.032z"/>
	<path style="fill:#55646E;" d="M192,432h-16c-1.104,0-2.183-0.112-3.225-0.325c-6.249-1.279-11.172-6.201-12.45-12.45
		c-0.213-1.042-0.325-2.12-0.325-3.225v-80c0-1.389,0.195-2.729,0.528-4.013c0.09-0.348,0.184-0.694,0.297-1.033
		c1.559-4.689,5.225-8.403,9.879-10.037c0.674-0.237,1.36-0.446,2.071-0.591c1.042-0.213,2.12-0.325,3.225-0.325h16.096
		c0.452-24.114,2.663-47.93,6.575-70.521l7.499-43.309l-22.446-22.446l2.942-7.724l2.466-6.473l-9.822,25.783l-20.635,54.168
		C148.973,274.946,144,301.969,144,329.222V432c0,17.673,14.327,32,32,32h30.545C198.512,464,192,449.673,192,432z"/>
	<path style="fill:#FFE1AF;" d="M224,40h-2.909v27c0,35.039-2.906,69.783-8.576,102.527L211.394,176l-5.224,30.17l14.516,14.516
		c6.248,6.248,16.379,6.248,22.627,0l36.962-36.962l-1.787-4.69L277.333,176l-2.466-6.473c-0.193-0.507-0.372-1.019-0.562-1.527
		C262.211,135.704,256,101.497,256,67.002v-29.16c-2.355,1.364-5.082,2.158-8,2.158H224z"/>
	<path style="fill:#FFE1AF;" d="M207.944,71.886c0.035-1.622,0.055-3.245,0.055-4.87C208,68.641,207.972,70.263,207.944,71.886z"/>
	<path style="fill:#FFE1AF;" d="M191.154,164.032c-0.657,1.837-1.327,3.67-2.022,5.495
		C189.828,167.702,190.499,165.87,191.154,164.032z"/>
	<path style="fill:#FFE1AF;" d="M194.421,154.33c0,0.001-0.001,0.003-0.001,0.004C194.42,154.333,194.421,154.331,194.421,154.33z"
		/>
	<path style="fill:#FFE1AF;" d="M192.937,158.875c-0.236,0.701-0.477,1.4-0.719,2.099
		C192.459,160.275,192.702,159.576,192.937,158.875z"/>
	<path style="fill:#EBD296;" d="M183.724,183.724l22.446,22.446l0,0l0,0l5.224-30.17l1.121-6.473
		c5.67-32.744,8.576-67.488,8.576-102.527V40H216c-2.918,0-5.645-0.794-8-2.158V40v27c0,0.005,0,0.011,0,0.016
		c0,1.625-0.021,3.248-0.055,4.87c-0.099,4.586-0.323,9.164-0.62,13.735c-0.078,1.19-0.151,2.379-0.244,3.568
		c-0.486,6.28-1.148,12.539-2.042,18.766c-0.019,0.13-0.043,0.258-0.063,0.388c-0.956,6.585-2.161,13.129-3.569,19.632
		c-0.036,0.167-0.067,0.335-0.104,0.502c-0.367,1.679-0.75,3.356-1.146,5.029c-1.656,7.004-3.563,13.951-5.736,20.824
		c0,0.001-0.001,0.003-0.001,0.004c-0.48,1.518-0.977,3.03-1.483,4.541c-0.235,0.701-0.478,1.4-0.719,2.099
		c-0.351,1.021-0.701,2.041-1.064,3.058c-0.656,1.837-1.327,3.67-2.022,5.495L186.667,176L183.724,183.724z"/>
	<path style="fill:#FFE1AF;" d="M192,432h96c8.837,0,16-7.163,16-16v-80c0-8.837-7.163-16-16-16h-95.809
		c-0.058,3.076-0.191,6.138-0.191,9.222V432z M218.822,352c5.144,0,9.801,2.082,13.178,5.447c3.377-3.365,8.034-5.447,13.178-5.447
		c10.31,0,18.668,8.358,18.668,18.668c0,14.276-16.747,31.434-31.846,38.435c-15.099-7.001-31.846-24.159-31.846-38.435
		C200.154,360.358,208.512,352,218.822,352z"/>
	<path style="fill:#FFE1AF;" d="M176,432c-1.104,0-2.183-0.112-3.225-0.325C173.817,431.888,174.896,432,176,432z"/>
	<path style="fill:#FFE1AF;" d="M160.325,419.225c-0.213-1.042-0.325-2.12-0.325-3.225C160,417.104,160.112,418.183,160.325,419.225
		z"/>
	<path style="fill:#FFE1AF;" d="M160.528,331.987c0.09-0.348,0.184-0.694,0.297-1.033
		C160.712,331.292,160.618,331.638,160.528,331.987z"/>
	<path style="fill:#FFE1AF;" d="M172.775,320.325c1.042-0.213,2.12-0.325,3.225-0.325C174.896,320,173.817,320.112,172.775,320.325z
		"/>
	<path style="fill:#FFE1AF;" d="M170.704,320.916c0.674-0.237,1.36-0.446,2.071-0.591
		C172.064,320.471,171.378,320.68,170.704,320.916z"/>
	<path style="fill:#FFE1AF;" d="M160.325,419.225c1.279,6.249,6.201,11.172,12.45,12.45
		C166.526,430.396,161.604,425.474,160.325,419.225z"/>
	<path style="fill:#EBD296;" d="M172.775,320.325c-0.711,0.146-1.398,0.355-2.071,0.591c-4.654,1.635-8.32,5.348-9.879,10.037
		c-0.113,0.339-0.207,0.685-0.297,1.033C160.195,333.271,160,334.611,160,336v80c0,1.104,0.112,2.183,0.325,3.225
		c1.279,6.249,6.201,11.172,12.45,12.45c1.042,0.213,2.12,0.325,3.225,0.325h16V329.222c0-3.083,0.133-6.146,0.191-9.222h-0.095H176
		C174.896,320,173.817,320.112,172.775,320.325z"/>
	<path style="fill:#EBD296;" d="M232,8v24c0,4.418-3.582,8-8,8h24c2.918,0,5.645-0.794,8-2.158c4.778-2.768,8-7.923,8-13.842v-8
		c0-8.837-7.163-16-16-16h-24C228.418,0,232,3.582,232,8z"/>
	<path style="fill:#D7C38C;" d="M221.091,40H224c4.418,0,8-3.582,8-8V8c0-4.418-3.582-8-8-8h-8c-8.837,0-16,7.163-16,16v8
		c0,5.919,3.222,11.074,8,13.842c2.355,1.364,5.082,2.158,8,2.158H221.091z"/>
	<path style="fill:#E86464;" d="M232,409.104c15.099-7.001,31.846-24.159,31.846-38.435c0-10.31-8.358-18.668-18.668-18.668
		c-5.144,0-9.801,2.082-13.178,5.447c-3.377-3.365-8.034-5.447-13.178-5.447c-10.31,0-18.668,8.358-18.668,18.668
		C200.154,384.944,216.901,402.103,232,409.104z"/>
</g>
<g>
</g>
<g>
</g>
<g>
</g>
<g>
</g>
<g>
</g>
<g>
</g>
<g>
</g>
<g>
</g>
<g>
</g>
<g>
</g>
<g>
</g>
<g>
</g>
<g>
</g>
<g>
</g>
<g>
</g>
</svg>
