<?xml version="1.0" encoding="iso-8859-1"?>
<!-- Generator: Adobe Illustrator 19.0.0, SVG Export Plug-In . SVG Version: 6.00 Build 0)  -->
<svg version="1.1" id="Capa_1" xmlns="http://www.w3.org/2000/svg" xmlns:xlink="http://www.w3.org/1999/xlink" x="0px" y="0px"
	 viewBox="0 0 464 464" style="enable-background:new 0 0 464 464;" xml:space="preserve">
<g>
	<path style="fill:#A03C3C;" d="M201.437,37.631c-11.199-11.007-42.053-35.393-97.239-37.625C99.716-0.175,96,3.534,96,8.02
		c0,4.347,3.486,7.803,7.83,7.984c47.587,1.991,74.429,21.798,84.834,31.517C192.319,43.548,196.634,40.194,201.437,37.631z"/>
	<path style="fill:#D2504B;" d="M224,32c1.015,0,2.022,0.037,3.019,0.104C226.02,32.042,225.015,32,224,32z"/>
	<path style="fill:#D2504B;" d="M200,80c0,7.32,1.65,14.247,4.583,20.447C235.864,98.714,263.069,93.933,272,80
		c0-25.435-19.787-46.237-44.807-47.883c3.02,0.215,5.959,0.722,8.807,1.456C215.309,38.91,200,57.642,200,80z"/>
	<path style="fill:#BE3C3C;" d="M204.583,100.447C201.65,94.247,200,87.32,200,80c0-22.358,15.309-41.09,36-46.427
		c-2.848-0.734-5.786-1.241-8.807-1.456c-0.058-0.004-0.116-0.009-0.174-0.013C226.022,32.037,225.015,32,224,32
		c-2.485,0-4.926,0.189-7.31,0.553c-5.44,0.831-10.575,2.582-15.253,5.078c-4.803,2.563-9.118,5.917-12.773,9.891
		c-6.301,6.852-10.64,15.537-12.111,25.168C176.189,75.074,176,77.515,176,80s0.189,4.927,0.553,7.31
		c0.755,4.941,2.272,9.63,4.413,13.954C188.945,101.116,196.887,100.873,204.583,100.447z"/>
	<path style="fill:#FFC8AA;" d="M78.827,115.734c0,12.132,21.573,22.115,53.566,30.502c-1.282-2.929-0.731-6.467,1.666-8.864h0
		c3.124-3.124,8.189-3.124,11.314,0l15.403,15.403c34.634,7.098,75.773,12.92,114.182,17.924l0.356-0.356
		c3.124-3.124,8.19-3.124,11.314,0c0.618,0.618,1.109,1.314,1.482,2.054c35.086,4.492,66.874,8.32,87.89,11.854V184
		c32-52-70-98.667-104-104c-8.931,13.933-36.136,18.714-67.417,20.447c-7.697,0.427-15.639,0.669-23.618,0.817
		c-44.274,0.822-89.631-1.237-99.955,9.346c0.382-0.159,0.765-0.307,1.149-0.445L78.827,115.734z M298.343,114.343
		c3.124-3.124,8.19-3.124,11.314,0l16.971,16.971c3.124,3.124,3.124,8.189,0,11.314c-3.124,3.124-8.19,3.124-11.314,0
		l-16.971-16.971C295.219,122.533,295.219,117.467,298.343,114.343z M230.627,121.373c3.124,3.124,3.124,8.189,0,11.314
		l-16.971,16.971c-3.124,3.124-8.19,3.124-11.314,0s-3.124-8.19,0-11.314l16.971-16.971
		C222.438,118.248,227.503,118.248,230.627,121.373z"/>
	<path style="fill:#FF82A0;" d="M208,256c0,0-56.014-17.187-100.491-36.195l-2.338,2.338c-3.124,3.124-8.19,3.124-11.314,0h0
		c-2.473-2.473-2.98-6.158-1.539-9.138c-13.693-6.452-25.192-12.905-31.931-18.776c-8.451,6.541-36.877,17.443-36.877,61.051
		L25.42,256H96H208z"/>
	<path style="fill:#FFAAAA;" d="M93.858,210.828l16.971-16.97c3.124-3.124,8.19-3.124,11.314,0c3.124,3.124,3.124,8.189,0,11.314
		l-14.633,14.633C151.986,238.813,208,256,208,256h232c0-20.714,12.211-57.411-56.935-70.494c-2.192-0.415-4.553-0.833-7.065-1.256
		c-21.017-3.534-52.804-7.362-87.89-11.854c1.515,3,1.024,6.754-1.482,9.26l-16.971,16.971c-3.124,3.124-8.19,3.124-11.314,0
		c-3.124-3.124-3.124-8.189,0-11.314l16.615-16.615c-38.41-5.004-79.548-10.826-114.182-17.924l1.568,1.568
		c3.124,3.124,3.124,8.19,0,11.314s-8.19,3.124-11.314,0l-16.971-16.971c-0.727-0.727-1.277-1.562-1.666-2.45
		c-31.993-8.387-53.566-18.37-53.566-30.502l3.333-5.569c-0.384,0.137-0.766,0.286-1.149,0.445
		c-24.184,10.047-45.335,62.086-20.623,83.618c6.739,5.872,18.238,12.324,31.931,18.776
		C92.699,212.219,93.206,211.48,93.858,210.828z M352,224h-24c-4.418,0-8-3.582-8-8s3.582-8,8-8h24c4.418,0,8,3.582,8,8
		S356.418,224,352,224z M216,224c0,4.418-3.582,8-8,8s-8-3.582-8-8v-24c0-4.418,3.582-8,8-8s8,3.582,8,8V224z"/>
	<path style="fill:#7D5050;" d="M64.546,442.467L4.594,269.271L64.546,442.467C69.008,455.356,81.148,464,94.786,464h0
		C81.147,464,69.008,455.355,64.546,442.467z"/>
	<path style="fill:#7D5050;" d="M449.956,256H440H208H96l64.546,186.467c4.461,12.888,16.601,21.533,30.24,21.533h178.428
		c13.639,0,25.778-8.644,30.24-21.532l59.953-173.196C461.655,262.775,456.83,256,449.956,256z M232,417.778
		c-30.344-13.949-64-48.137-64-76.581C168,320.653,184.797,304,205.517,304c10.338,0,19.697,4.148,26.483,10.853
		c6.786-6.706,16.145-10.853,26.483-10.853c20.72,0,37.517,16.653,37.517,37.197C296,369.641,262.344,403.829,232,417.778z"/>
	<path style="fill:#6B3C41;" d="M160.546,442.467L96,256H25.42H14.044c-6.874,0-11.698,6.775-9.45,13.271l59.953,173.196
		C69.008,455.355,81.147,464,94.786,464h96C177.147,464,165.008,455.355,160.546,442.467z"/>
	<path style="fill:#D2504B;" d="M208,192c-4.418,0-8,3.582-8,8v24c0,4.418,3.582,8,8,8s8-3.582,8-8v-24
		C216,195.582,212.418,192,208,192z"/>
	<path style="fill:#FFD76E;" d="M352,208h-24c-4.418,0-8,3.582-8,8s3.582,8,8,8h24c4.418,0,8-3.582,8-8S356.418,208,352,208z"/>
	<path style="fill:#FFD76E;" d="M122.142,193.858c-3.124-3.124-8.19-3.124-11.314,0l-16.971,16.97
		c-0.652,0.652-1.159,1.391-1.539,2.176c-1.441,2.98-0.934,6.665,1.539,9.138h0c3.124,3.124,8.189,3.124,11.314,0l2.338-2.338
		l14.633-14.633C125.266,202.047,125.266,196.982,122.142,193.858z"/>
	<path style="fill:#FF82A0;" d="M275.314,170.343l-0.356,0.356l-16.615,16.615c-3.124,3.124-3.124,8.189,0,11.314
		c3.124,3.124,8.19,3.124,11.314,0l16.971-16.971c2.506-2.506,2.997-6.26,1.482-9.26c-0.373-0.74-0.864-1.436-1.482-2.054
		C283.503,167.219,278.438,167.219,275.314,170.343z"/>
	<path style="fill:#FFFFFF;" d="M219.314,121.373l-16.971,16.971c-3.124,3.124-3.124,8.19,0,11.314s8.19,3.124,11.314,0
		l16.971-16.971c3.124-3.124,3.124-8.189,0-11.314C227.503,118.248,222.438,118.248,219.314,121.373z"/>
	<path style="fill:#D2504B;" d="M134.059,137.373L134.059,137.373c-2.397,2.397-2.948,5.935-1.666,8.864
		c0.389,0.888,0.939,1.723,1.666,2.45l16.971,16.971c3.124,3.124,8.19,3.124,11.314,0s3.124-8.19,0-11.314l-1.568-1.568
		l-15.403-15.403C142.248,134.248,137.183,134.248,134.059,137.373z"/>
	<path style="fill:#D2504B;" d="M315.314,142.627c3.124,3.124,8.19,3.124,11.314,0c3.124-3.124,3.124-8.189,0-11.314l-16.971-16.971
		c-3.124-3.124-8.19-3.124-11.314,0s-3.124,8.19,0,11.314L315.314,142.627z"/>
	<path style="fill:#96736E;" d="M258.483,304c-10.338,0-19.697,4.148-26.483,10.853C225.214,308.148,215.855,304,205.517,304
		C184.797,304,168,320.653,168,341.197c0,28.445,33.656,62.633,64,76.581c30.344-13.949,64-48.137,64-76.581
		C296,320.653,279.203,304,258.483,304z"/>
</g>
<g>
</g>
<g>
</g>
<g>
</g>
<g>
</g>
<g>
</g>
<g>
</g>
<g>
</g>
<g>
</g>
<g>
</g>
<g>
</g>
<g>
</g>
<g>
</g>
<g>
</g>
<g>
</g>
<g>
</g>
</svg>
