<?xml version="1.0" encoding="iso-8859-1"?>
<!-- Generator: Adobe Illustrator 19.0.0, SVG Export Plug-In . SVG Version: 6.00 Build 0)  -->
<svg version="1.1" id="Capa_1" xmlns="http://www.w3.org/2000/svg" xmlns:xlink="http://www.w3.org/1999/xlink" x="0px" y="0px"
	 viewBox="0 0 464.22 464.22" style="enable-background:new 0 0 464.22 464.22;" xml:space="preserve">
<g>
	<path style="fill:#82C888;" d="M404.712,278.091c-0.065-0.065-0.131-0.126-0.196-0.191c-1.86,0.801-3.766,1.515-5.719,2.124
		c10.734,21.328,7.633,47.826-9.311,66.156l38.486,38.486c3.125,3.125,3.125,8.188,0,11.313c-1.563,1.563-3.609,2.344-5.656,2.344
		s-4.094-0.781-5.656-2.344l-39.586-39.586c-17.353,10.668-39.044,11.471-57.051,2.407c-1.793,5.756-4.458,11.124-7.825,15.969
		c44.77,43.615,102.037,63.106,150.604,56.036C469.983,381.473,449.781,323.159,404.712,278.091z"/>
	<path style="fill:#73AA82;" d="M377.074,356.391l39.586,39.586c1.563,1.563,3.609,2.344,5.656,2.344s4.094-0.781,5.656-2.344
		c3.125-3.125,3.125-8.188,0-11.313l-38.486-38.486c-0.528,0.571-1.058,1.141-1.612,1.696
		C384.548,351.202,380.914,354.03,377.074,356.391z"/>
	<path style="fill:#FFD7A5;" d="M317.158,265.845l31.694,31.694c3.125,3.125,3.125,8.188,0,11.313
		c-1.563,1.563-3.609,2.344-5.656,2.344s-4.094-0.781-5.656-2.344l-31.694-31.694c10.402,22.183,16.822,48.162,16.822,64.176
		c0,6.082-0.926,11.948-2.644,17.464c18.008,9.063,39.698,8.261,57.051-2.407c3.84-2.361,7.474-5.189,10.801-8.516
		c0.555-0.555,1.085-1.125,1.612-1.696c16.944-18.329,20.045-44.828,9.311-66.156c-5.517,1.718-11.382,2.644-17.464,2.644
		C365.319,282.667,339.341,276.248,317.158,265.845z"/>
	<path style="fill:#FFD7A5;" d="M222.155,277.158l-31.694,31.694c-1.563,1.563-3.609,2.344-5.656,2.344s-4.094-0.781-5.656-2.344
		c-3.125-3.125-3.125-8.188,0-11.313l31.694-31.694c-22.183,10.402-48.162,16.822-64.176,16.822c-6.143,0-12.064-0.948-17.629-2.7
		c-11.024,21.98-7.382,49.438,10.959,67.779c18.383,18.383,45.926,22.001,67.931,10.884c-1.685-5.468-2.595-11.275-2.595-17.296
		C205.333,325.32,211.753,299.341,222.155,277.158z"/>
	<path style="fill:#82C888;" d="M88.557,232H48c-4.418,0-8-3.578-8-8s3.582-8,8-8h40.557c3.115-22.83,19.351-41.481,40.871-48.088
		c-0.249-0.497-0.505-0.992-0.739-1.495l-52.892-36.323c-3.645-2.5-4.57-7.484-2.066-11.125c2.5-3.641,7.48-4.57,11.121-2.063
		l38.388,26.363c-0.365-12.987,3.554-26.066,11.766-36.944c-32.918-14.855-66.932-18.113-94.251-9.998
		c2.187,27.807,16.844,57.69,41.548,82.753C47.221,185.606,17.748,202.064,0,224c22.709,28.067,64.606,47.175,112.902,47.962
		C99.907,262.798,90.808,248.494,88.557,232z"/>
	<path style="fill:#73AA82;" d="M40,224c0,4.422,3.582,8,8,8h40.557C88.2,229.383,88,226.716,88,224s0.2-5.383,0.557-8H48
		C43.582,216,40,219.579,40,224z"/>
	<path style="fill:#73AA82;" d="M84.852,116.907c-3.641-2.508-8.621-1.578-11.121,2.063c-2.504,3.641-1.578,8.625,2.066,11.125
		l52.892,36.323c-3.419-7.33-5.226-15.22-5.449-23.148L84.852,116.907z"/>
	<path style="fill:#82C888;" d="M361.711,85.15l15.801-20.235c2.723-3.484,7.75-4.102,11.227-1.383
		c3.484,2.719,4.102,7.742,1.383,11.227l-13.232,16.946c3.861,2.367,7.514,5.208,10.857,8.551c5.7,5.7,9.98,12.282,12.843,19.306
		C415.066,89.394,419.391,58.059,413.356,32c-32.215,0.558-68.215,17.545-97.155,47.905c1.532,2.982,2.83,6.103,3.839,9.354
		C333.029,82.767,347.916,81.398,361.711,85.15z"/>
	<path style="fill:#73AA82;" d="M390.121,74.758c2.719-3.484,2.102-8.508-1.383-11.227c-3.477-2.719-8.504-2.102-11.227,1.383
		L361.711,85.15c5.278,1.435,10.391,3.619,15.178,6.554L390.121,74.758z"/>
	<path style="fill:#FFD7A5;" d="M123.24,143.27c0.223,7.927,2.03,15.818,5.449,23.148c0.234,0.503,0.49,0.998,0.739,1.495
		c5.451-1.674,11.239-2.579,17.239-2.579c16.014,0,41.992,6.419,64.176,16.822l-31.694-31.694c-3.125-3.125-3.125-8.188,0-11.313
		s8.188-3.125,11.313,0l31.694,31.694c-10.402-22.183-16.821-48.161-16.821-64.176c0-6.123,0.941-12.025,2.681-17.573
		c-21.955-10.934-49.331-7.268-67.631,11.032c-1.965,1.965-3.749,4.042-5.378,6.199C126.794,117.203,122.874,130.282,123.24,143.27z
		"/>
	<path style="fill:#FFD7A5;" d="M376.889,91.704c-4.787-2.935-9.9-5.119-15.178-6.554c-13.794-3.752-28.681-2.382-41.671,4.11
		c1.707,5.5,2.627,11.346,2.627,17.408c0,16.014-6.419,41.992-16.822,64.176l31.694-31.694c3.125-3.125,8.188-3.125,11.313,0
		s3.125,8.188,0,11.313l-31.694,31.694c22.183-10.402,48.161-16.822,64.176-16.822c6.061,0,11.907,0.92,17.408,2.627
		c7.564-15.133,8.189-32.848,1.848-48.399c-2.864-7.024-7.143-13.606-12.843-19.306C384.403,96.912,380.75,94.071,376.889,91.704z"
		/>
	<path style="fill:#FFC38C;" d="M228.558,256.04c-5.386,3.555-11.395,6.842-17.716,9.805l-31.694,31.694
		c-3.125,3.125-3.125,8.188,0,11.313c1.563,1.563,3.609,2.344,5.656,2.344s4.094-0.781,5.656-2.344l31.694-31.694
		c2.964-6.321,6.251-12.33,9.806-17.716C230.77,258.366,229.635,257.23,228.558,256.04z"/>
	<path style="fill:#FFC38C;" d="M299.442,191.961c5.386-3.555,11.395-6.842,17.716-9.806l31.694-31.694
		c3.125-3.125,3.125-8.188,0-11.313s-8.188-3.125-11.313,0l-31.694,31.694c-2.964,6.32-6.251,12.33-9.805,17.715
		C297.23,189.635,298.365,190.771,299.442,191.961z"/>
	<path style="fill:#FFC38C;" d="M343.195,311.196c2.047,0,4.094-0.781,5.656-2.344c3.125-3.125,3.125-8.188,0-11.313l-31.694-31.694
		c-6.32-2.964-12.33-6.25-17.716-9.805c-1.077,1.19-2.212,2.326-3.402,3.402c3.555,5.385,6.842,11.395,9.805,17.716l31.694,31.694
		C339.102,310.415,341.148,311.196,343.195,311.196z"/>
	<path style="fill:#FFC38C;" d="M231.96,188.558c-3.555-5.385-6.842-11.395-9.806-17.716l-31.694-31.694
		c-3.125-3.125-8.188-3.125-11.313,0s-3.125,8.188,0,11.313l31.694,31.694c6.32,2.964,12.33,6.25,17.716,9.805
		C229.635,190.77,230.77,189.635,231.96,188.558z"/>
	<path style="fill:#FFE6CD;" d="M322.667,341.334c0-16.014-6.419-41.992-16.822-64.176c-2.964-6.32-6.251-12.33-9.805-17.716
		c-6.6,5.97-14.878,10.113-24.04,11.658V336c0,4.422-3.582,8-8,8s-8-3.578-8-8v-64.9c-9.161-1.545-17.439-5.688-24.04-11.658
		c-3.555,5.386-6.842,11.395-9.806,17.716c-10.402,22.183-16.821,48.161-16.821,64.176c0,6.021,0.91,11.828,2.595,17.296
		C215.31,382.588,237.62,400,264,400c19.972,0,37.603-9.989,48.198-25.234c3.367-4.844,6.032-10.212,7.825-15.969
		C321.741,353.281,322.667,347.416,322.667,341.334z"/>
	<path style="fill:#FFE6CD;" d="M222.155,170.843c2.964,6.321,6.251,12.33,9.806,17.716c6.6-5.97,14.878-10.113,24.04-11.658V112
		c0-4.422,3.582-8,8-8s8,3.578,8,8v64.9c9.161,1.545,17.439,5.688,24.04,11.658c3.555-5.385,6.842-11.395,9.805-17.715
		c10.402-22.183,16.822-48.162,16.822-64.176c0-6.061-0.92-11.908-2.627-17.408c-1.009-3.251-2.307-6.373-3.839-9.354
		C306.472,60.966,286.757,48,264,48c-26.278,0-48.518,17.279-55.986,41.094c-1.74,5.549-2.681,11.451-2.681,17.573
		C205.333,122.681,211.753,148.659,222.155,170.843z"/>
	<path style="fill:#FFE6CD;" d="M210.842,265.845c6.32-2.964,12.33-6.25,17.716-9.805c-5.97-6.6-10.113-14.878-11.658-24.04H152
		c-4.418,0-8-3.578-8-8s3.582-8,8-8h64.9c1.545-9.161,5.687-17.439,11.658-24.04c-5.386-3.555-11.395-6.841-17.716-9.805
		c-22.183-10.402-48.162-16.822-64.176-16.822c-6,0-11.787,0.905-17.239,2.579c-21.52,6.606-37.756,25.258-40.871,48.088
		C88.2,218.618,88,221.285,88,224s0.2,5.383,0.557,8c2.25,16.493,11.35,30.797,24.345,39.962c4.884,3.445,10.31,6.171,16.135,8.005
		c5.565,1.751,11.486,2.7,17.629,2.7C162.681,282.667,188.659,276.248,210.842,265.845z"/>
	<path style="fill:#FFE6CD;" d="M317.158,182.155c-6.32,2.964-12.33,6.251-17.716,9.806c5.97,6.6,10.113,14.878,11.658,24.04H376
		c4.418,0,8,3.578,8,8s-3.582,8-8,8h-64.9c-1.545,9.161-5.687,17.439-11.658,24.04c5.386,3.555,11.395,6.842,17.716,9.805
		c22.183,10.402,48.161,16.822,64.176,16.822c6.082,0,11.948-0.926,17.464-2.644c1.953-0.608,3.859-1.322,5.719-2.124
		C425.386,268.911,440,248.166,440,224c0-26.339-17.358-48.624-41.259-56.04c-5.5-1.707-11.346-2.627-17.408-2.627
		C365.319,165.334,339.341,171.753,317.158,182.155z"/>
	<path style="fill:#FFD7A5;" d="M216.22,224c0-2.728,0.241-5.397,0.68-8H152c-4.418,0-8,3.578-8,8s3.582,8,8,8h64.9
		C216.461,229.398,216.22,226.728,216.22,224z"/>
	<path style="fill:#FFD7A5;" d="M311.779,224c0,2.728-0.241,5.397-0.68,8H376c4.418,0,8-3.578,8-8s-3.582-8-8-8h-64.9
		C311.539,218.603,311.779,221.273,311.779,224z"/>
	<path style="fill:#FFD7A5;" d="M264,271.78c-2.727,0-5.397-0.241-8-0.68V336c0,4.422,3.582,8,8,8s8-3.578,8-8v-64.9
		C269.397,271.539,266.727,271.78,264,271.78z"/>
	<path style="fill:#FFD7A5;" d="M264,176.221c2.727,0,5.397,0.241,8,0.68V112c0-4.422-3.582-8-8-8s-8,3.578-8,8v64.9
		C258.603,176.462,261.273,176.221,264,176.221z"/>
	<path style="fill:#FFC882;" d="M299.442,256.04c5.97-6.6,10.113-14.878,11.658-24.04c0.439-2.603,0.68-5.272,0.68-8
		s-0.241-5.397-0.68-8c-1.545-9.161-5.687-17.439-11.658-24.04c-1.077-1.19-2.212-2.326-3.402-3.403
		c-6.6-5.97-14.878-10.112-24.04-11.658c-2.603-0.439-5.273-0.68-8-0.68s-5.397,0.241-8,0.68
		c-9.161,1.545-17.439,5.688-24.04,11.658c-1.19,1.077-2.326,2.212-3.402,3.402c-5.97,6.6-10.113,14.878-11.658,24.04
		c-0.439,2.603-0.68,5.272-0.68,8s0.241,5.397,0.68,8c1.545,9.161,5.687,17.439,11.658,24.04c1.077,1.19,2.212,2.326,3.402,3.402
		c6.6,5.97,14.878,10.113,24.04,11.658c2.603,0.439,5.273,0.68,8,0.68s5.397-0.241,8-0.68c9.161-1.545,17.439-5.688,24.04-11.658
		C297.23,258.366,298.365,257.23,299.442,256.04z M264,247.78c-13.133,0-23.78-10.646-23.78-23.78s10.646-23.78,23.78-23.78
		c13.133,0,23.779,10.646,23.779,23.78S277.133,247.78,264,247.78z"/>
	<circle style="fill:#DCA069;" cx="264" cy="224" r="23.78"/>
</g>
<g>
</g>
<g>
</g>
<g>
</g>
<g>
</g>
<g>
</g>
<g>
</g>
<g>
</g>
<g>
</g>
<g>
</g>
<g>
</g>
<g>
</g>
<g>
</g>
<g>
</g>
<g>
</g>
<g>
</g>
</svg>
