<?xml version="1.0" encoding="iso-8859-1"?>
<!-- Generator: Adobe Illustrator 19.0.0, SVG Export Plug-In . SVG Version: 6.00 Build 0)  -->
<svg version="1.1" id="Capa_1" xmlns="http://www.w3.org/2000/svg" xmlns:xlink="http://www.w3.org/1999/xlink" x="0px" y="0px"
	 viewBox="0 0 464 464" style="enable-background:new 0 0 464 464;" xml:space="preserve">
<g>
	<path style="fill:#FFEBE1;" d="M38.617,244.657c8.074,0,11.691-1.5,16.27-3.391c5.219-2.164,11.129-4.609,22.383-4.609
		c11.25,0,17.16,2.445,22.379,4.609c4.574,1.891,8.184,3.391,16.25,3.391c8.074,0,11.691-1.5,16.27-3.391
		c5.219-2.164,11.129-4.609,22.383-4.609c11.258,0,17.172,2.445,22.391,4.609c3.261,1.347,6.045,2.492,10.291,3.042l24.139-54.961
		L157.06,207.45c-10.36,3.454-21.06-4.258-21.06-15.179v-3.615H0v48c11.246,0,17.156,2.445,22.371,4.609
		C26.941,243.157,30.555,244.657,38.617,244.657z"/>
	<path style="fill:#FFEBE1;" d="M170.824,256.047c-4.578-1.891-8.199-3.391-16.273-3.391c-8.07,0-11.688,1.5-16.266,3.391
		c-5.219,2.164-11.133,4.609-22.387,4.609c-11.246,0-17.16-2.445-22.375-4.609c-4.574-1.891-8.188-3.391-16.254-3.391
		c-8.07,0-11.688,1.5-16.266,3.391c-5.219,2.164-11.133,4.609-22.387,4.609c-11.246,0-17.156-2.445-22.371-4.609
		c-4.57-1.891-8.184-3.391-16.246-3.391v16c19.308,0,19.308,8,38.617,8c19.327,0,19.327-8,38.653-8c19.315,0,19.315,8,38.63,8
		c19.325,0,19.325-8,38.649-8c10.173,0,14.993,2.215,20.094,4.314l5.976-13.606C176.668,258.462,173.64,257.215,170.824,256.047z"/>
	<path style="fill:#FFEBE1;" d="M231.883,252.657c-7.039,0-10.691,1.139-14.546,2.683l-8.203,18.678
		c6.269-2.331,10.846-5.361,22.747-5.361c12.082,0,16.614,3.125,23.032,5.468l-8.199-18.668
		C242.753,253.854,239.093,252.657,231.883,252.657z"/>
	<path style="fill:#FFEBE1;" d="M328,192.272c0,10.921-10.699,18.632-21.06,15.179l-54.312-18.104l24.126,54.933
		c4.119-0.56,6.858-1.69,10.061-3.013c5.219-2.164,11.133-4.609,22.387-4.609c11.258,0,17.172,2.445,22.391,4.609
		c4.578,1.891,8.195,3.391,16.27,3.391c8.086,0,11.707-1.5,16.289-3.391c5.223-2.164,11.145-4.609,22.406-4.609
		c11.266,0,17.191,2.445,22.414,4.609c4.59,1.891,8.211,3.391,16.305,3.391s11.719-1.5,16.309-3.391
		c5.227-2.164,11.148-4.609,22.414-4.609v-48H328V192.272z"/>
	<path style="fill:#FFEBE1;" d="M425.279,132.657c-19.361,0-19.361-8-38.721-8c-19.347,0-19.347,8-38.694,8
		c-19.33,0-19.33-8-38.661-8c-19.328,0-19.328,8-38.655,8c-19.333,0-19.333-8-38.667-8c-19.333,0-19.333,8-38.666,8
		c-19.333,0-19.333-8-38.666-8c-19.325,0-19.325,8-38.649,8c-19.315,0-19.315-8-38.63-8c-19.327,0-19.327,8-38.653,8
		c-19.308,0-19.308-8-38.617-8v32h136c0.008-10.914,10.703-18.619,21.059-15.167l45.5,15.167h13.359
		c0.837-0.756,1.726-1.455,2.663-2.088c0.638-0.431,1.299-0.833,1.979-1.202c1.7-0.924,3.525-1.648,5.442-2.141
		c1.917-0.493,3.927-0.756,5.998-0.756c2.82,0,5.486,0.576,8,1.47c-9.3,3.306-16,12.096-16,22.53s6.7,19.225,16,22.53
		c-2.514,0.894-5.18,1.47-8,1.47c13.255,0,24-10.745,24-24c0-5.403-1.786-10.389-4.8-14.4c-0.928-1.236-1.974-2.379-3.119-3.413
		h13.359l45.5-15.167c10.357-3.452,21.051,4.252,21.059,15.167h136v-32C444.64,124.657,444.64,132.657,425.279,132.657z"/>
	<path style="fill:#FFEBE1;" d="M425.277,260.657c-11.266,0-17.191-2.445-22.414-4.609c-4.59-1.891-8.211-3.391-16.305-3.391
		c-8.086,0-11.707,1.5-16.289,3.391c-5.223,2.164-11.145,4.609-22.406,4.609c-11.254,0-17.168-2.445-22.387-4.609
		c-4.578-1.891-8.195-3.391-16.273-3.391c-8.074,0-11.691,1.5-16.27,3.391c-2.764,1.146-5.732,2.367-9.575,3.266l5.961,13.573
		c5.024-2.074,9.85-4.229,19.883-4.229c19.33,0,19.33,8,38.661,8c19.347,0,19.347-8,38.694-8c19.36,0,19.36,8,38.721,8
		c19.36,0,19.36-8,38.721-8v-16c-8.09,0-11.715,1.5-16.305,3.391C442.469,258.212,436.547,260.657,425.277,260.657z"/>
	<path style="fill:#FFEBE1;" d="M238.604,236.991L232,221.955l-6.593,15.011c1.952-0.194,4.088-0.309,6.476-0.309
		C234.372,236.657,236.587,236.782,238.604,236.991z"/>
	<path style="fill:#FFE1CD;" d="M425.277,244.657c-8.094,0-11.715-1.5-16.305-3.391c-5.223-2.164-11.148-4.609-22.414-4.609
		c-11.262,0-17.184,2.445-22.406,4.609c-4.582,1.891-8.203,3.391-16.289,3.391c-8.074,0-11.691-1.5-16.27-3.391
		c-5.219-2.164-11.133-4.609-22.391-4.609c-11.254,0-17.168,2.445-22.387,4.609c-3.204,1.323-5.942,2.453-10.061,3.013l6.603,15.035
		c3.843-0.899,6.811-2.12,9.575-3.266c4.578-1.891,8.195-3.391,16.27-3.391c8.078,0,11.695,1.5,16.273,3.391
		c5.219,2.164,11.133,4.609,22.387,4.609c11.262,0,17.184-2.445,22.406-4.609c4.582-1.891,8.203-3.391,16.289-3.391
		c8.094,0,11.715,1.5,16.305,3.391c5.223,2.164,11.148,4.609,22.414,4.609c11.27,0,17.191-2.445,22.418-4.609
		c4.59-1.891,8.215-3.391,16.305-3.391v-16c-11.266,0-17.188,2.445-22.414,4.609C436.996,243.157,433.371,244.657,425.277,244.657z"
		/>
	<path style="fill:#FFE1CD;" d="M38.617,260.657c11.254,0,17.168-2.445,22.387-4.609c4.578-1.891,8.195-3.391,16.266-3.391
		c8.066,0,11.68,1.5,16.254,3.391c5.215,2.164,11.129,4.609,22.375,4.609c11.254,0,17.168-2.445,22.387-4.609
		c4.578-1.891,8.195-3.391,16.266-3.391c8.074,0,11.695,1.5,16.273,3.391c2.816,1.168,5.843,2.414,9.795,3.317l6.613-15.057
		c-4.246-0.55-7.029-1.695-10.291-3.042c-5.219-2.164-11.133-4.609-22.391-4.609c-11.254,0-17.164,2.445-22.383,4.609
		c-4.578,1.891-8.195,3.391-16.27,3.391c-8.066,0-11.676-1.5-16.25-3.391c-5.219-2.164-11.129-4.609-22.379-4.609
		c-11.254,0-17.164,2.445-22.383,4.609c-4.578,1.891-8.195,3.391-16.27,3.391c-8.063,0-11.676-1.5-16.246-3.391
		c-5.215-2.164-11.125-4.609-22.371-4.609v16c8.063,0,11.676,1.5,16.246,3.391C21.461,258.212,27.371,260.657,38.617,260.657z"/>
	<path style="fill:#FFE1CD;" d="M246.714,255.457l-8.11-18.465c-2.017-0.209-4.232-0.334-6.721-0.334
		c-2.388,0-4.524,0.115-6.476,0.309l-8.07,18.374c3.855-1.544,7.507-2.683,14.546-2.683
		C239.093,252.657,242.753,253.854,246.714,255.457z"/>
	<polygon style="fill:#E88470;" points="136,156.669 136,156.657 0,156.657 0,188.657 136,188.657 	"/>
	<path style="fill:#E88470;" d="M248.081,156.657c1.145,1.035,2.19,2.177,3.119,3.413l10.24-3.413H248.081z"/>
	<path style="fill:#E88470;" d="M215.029,157.5c0.289-0.289,0.586-0.569,0.889-0.843H202.56l10.24,3.413
		C213.482,159.161,214.227,158.302,215.029,157.5z"/>
	<polygon style="fill:#E88470;" points="328,156.669 328,188.657 464,188.657 464,156.657 328,156.657 	"/>
	<path style="fill:#D2504B;" d="M276.755,244.279l-24.126-54.933l54.312,18.104c10.36,3.454,21.06-4.258,21.06-15.179v-3.615
		v-31.988c0-0.004,0-0.008,0-0.012c-0.008-10.914-10.703-18.619-21.059-15.167l-45.5,15.167l-10.24,3.413
		c3.013,4.011,4.8,8.997,4.8,14.4c0,13.255-10.745,24-24,24c-2.071,0-4.081-0.262-5.998-0.756c-1.917-0.493-3.742-1.217-5.442-2.141
		c-0.68-0.369-1.34-0.771-1.979-1.202c-2.554-1.725-4.757-3.929-6.483-6.482c-0.431-0.638-0.833-1.299-1.202-1.979
		c-0.924-1.7-1.648-3.525-2.141-5.442c-0.493-1.917-0.756-3.927-0.756-5.998c0-5.403,1.786-10.389,4.8-14.4l-10.24-3.413
		l-45.5-15.167c-10.357-3.452-21.051,4.252-21.059,15.167c0,0.004,0,0.008,0,0.012v31.988v3.615
		c0,10.921,10.699,18.632,21.06,15.179l54.312-18.104l-24.139,54.961l-6.613,15.057l-5.976,13.606l-23.499,53.504l21.083-8.215
		l8.215,21.083l28.691-65.325l8.203-18.678l8.07-18.374L232,221.955l6.604,15.037l8.11,18.465l8.199,18.668l28.644,65.218
		l8.215-21.083l21.083,8.215l-23.536-53.589l-5.961-13.573L276.755,244.279z"/>
	<path style="fill:#FFE1CD;" d="M212.8,160.07c-3.013,4.011-4.8,8.997-4.8,14.4c0,2.071,0.262,4.081,0.756,5.998
		c0.493,1.917,1.217,3.741,2.141,5.442c0.369,0.68,0.771,1.34,1.202,1.979c1.725,2.553,3.929,4.757,6.483,6.482
		c0.638,0.431,1.299,0.833,1.979,1.202c1.7,0.924,3.525,1.648,5.442,2.141c1.917,0.493,3.927,0.756,5.998,0.756
		c2.82,0,5.486-0.576,8-1.47c-9.3-3.306-16-12.096-16-22.53s6.7-19.225,16-22.53c-2.514-0.894-5.18-1.47-8-1.47
		c-2.071,0-4.081,0.262-5.998,0.756c-1.917,0.493-3.742,1.217-5.442,2.141c-0.68,0.369-1.34,0.771-1.979,1.202
		c-0.937,0.633-1.826,1.332-2.663,2.088c-0.303,0.274-0.6,0.554-0.889,0.843C214.227,158.302,213.482,159.161,212.8,160.07z"/>
</g>
<g>
</g>
<g>
</g>
<g>
</g>
<g>
</g>
<g>
</g>
<g>
</g>
<g>
</g>
<g>
</g>
<g>
</g>
<g>
</g>
<g>
</g>
<g>
</g>
<g>
</g>
<g>
</g>
<g>
</g>
</svg>
