<?xml version="1.0" encoding="iso-8859-1"?>
<!-- Generator: Adobe Illustrator 19.0.0, SVG Export Plug-In . SVG Version: 6.00 Build 0)  -->
<svg version="1.1" id="Capa_1" xmlns="http://www.w3.org/2000/svg" xmlns:xlink="http://www.w3.org/1999/xlink" x="0px" y="0px"
	 viewBox="0 0 464 464" style="enable-background:new 0 0 464 464;" xml:space="preserve">
<g>
	<path style="fill:#E86464;" d="M98.906,88.953c0.194-0.469,0.387-0.94,0.586-1.406C99.293,88.014,99.1,88.484,98.906,88.953z"/>
	<path style="fill:#E86464;" d="M96.392,95.471c0.27-0.755,0.547-1.506,0.83-2.255C96.939,93.965,96.662,94.716,96.392,95.471z"/>
	<path style="fill:#E86464;" d="M92.785,107.083c0.679-2.569,1.43-5.109,2.246-7.619C94.215,101.974,93.465,104.514,92.785,107.083z
		"/>
	<path style="fill:#E86464;" d="M101.662,82.721c0.43-0.913,0.87-1.821,1.319-2.724C102.533,80.9,102.093,81.808,101.662,82.721z"/>
	<path style="fill:#E86464;" d="M91.092,114.217c0.378-1.799,0.791-3.585,1.236-5.359C91.882,110.632,91.47,112.418,91.092,114.217z
		"/>
	<path style="fill:#E86464;" d="M125.117,47.506c0.155-0.172,0.31-0.345,0.466-0.516C125.427,47.161,125.273,47.334,125.117,47.506z
		"/>
	<path style="fill:#E86464;" d="M120.359,53.053c0.309-0.379,0.619-0.757,0.932-1.133C120.978,52.296,120.668,52.674,120.359,53.053
		z"/>
	<path style="fill:#E86464;" d="M130.119,42.236c0.02-0.02,0.039-0.04,0.058-0.06C130.157,42.196,130.138,42.217,130.119,42.236z"/>
	<path style="fill:#E86464;" d="M130.237,42.118c1.549-1.548,3.135-3.059,4.754-4.535C133.372,39.059,131.786,40.571,130.237,42.118
		z"/>
	<path style="fill:#E86464;" d="M88.188,136.59c0.119-2.345,0.298-4.675,0.527-6.99C88.485,131.915,88.306,134.244,88.188,136.59z"
		/>
	<path style="fill:#E86464;" d="M193.706,282.837c-0.617-0.17-1.236-0.335-1.85-0.513
		C192.47,282.502,193.089,282.667,193.706,282.837z"/>
	<path style="fill:#E86464;" d="M223.649,273.185V219.63c-23.427-13.384-47.053-36.233-58.584-59.63h-2.907l17.766,73.69
		C191.671,250.218,206.591,263.769,223.649,273.185z"/>
	<path style="fill:#E86464;" d="M160.89,269.227c-0.475-0.271-0.952-0.54-1.424-0.815
		C159.938,268.687,160.414,268.956,160.89,269.227z"/>
	<path style="fill:#E86464;" d="M164.32,271.118c-0.49-0.261-0.981-0.521-1.467-0.788
		C163.339,270.597,163.83,270.856,164.32,271.118z"/>
	<path style="fill:#E86464;" d="M171.357,274.628c-0.522-0.243-1.045-0.483-1.563-0.731
		C170.312,274.145,170.835,274.385,171.357,274.628z"/>
	<path style="fill:#E86464;" d="M201.546,284.758c-0.656-0.141-1.314-0.277-1.966-0.427
		C200.232,284.481,200.89,284.617,201.546,284.758z"/>
	<path style="fill:#E86464;" d="M173.582,275.651l-0.002-0.007c-0.078-0.035-0.157-0.068-0.235-0.102
		C173.424,275.577,173.503,275.615,173.582,275.651z"/>
	<path style="fill:#E86464;" d="M152,144c0.016,0,0.032,0,0.048,0h7.157c-0.903-3.902-1.387-7.763-1.387-11.538
		c0-24.555,19.469-44.462,43.486-44.462c11.982,0,22.83,4.958,30.696,12.973C239.866,92.958,250.714,88,262.696,88
		c24.017,0,43.486,19.906,43.486,44.462c0,3.776-0.483,7.636-1.387,11.538h71.082c0.041-0.001,0.082-0.006,0.123-0.006
		C375.997,64.468,311.527,0,232,0c8.687,0,17.149,0.901,25.412,2.375C197.512,14.395,152,73.157,152,144z"/>
	<path style="fill:#E86464;" d="M197.604,283.851c-0.636-0.156-1.275-0.307-1.908-0.471
		C196.33,283.544,196.968,283.695,197.604,283.851z"/>
	<path style="fill:#E86464;" d="M167.809,272.919c-0.505-0.252-1.011-0.502-1.513-0.76
		C166.798,272.417,167.304,272.667,167.809,272.919z"/>
	<path style="fill:#E86464;" d="M135.506,37.117c1.445-1.305,2.917-2.58,4.415-3.827C138.424,34.537,136.951,35.812,135.506,37.117z
		"/>
	<path style="fill:#E86464;" d="M205.533,285.558c-0.677-0.126-1.355-0.246-2.028-0.381
		C204.178,285.312,204.857,285.432,205.533,285.558z"/>
	<path style="fill:#E86464;" d="M141.596,256.069c-0.393-0.318-0.787-0.636-1.177-0.958
		C140.809,255.433,141.203,255.751,141.596,256.069z"/>
	<path style="fill:#E86464;" d="M144.652,258.47c-0.407-0.312-0.815-0.623-1.219-0.938
		C143.837,257.847,144.244,258.158,144.652,258.47z"/>
	<path style="fill:#E86464;" d="M157.521,267.248c-0.463-0.28-0.926-0.559-1.385-0.844
		C156.595,266.689,157.058,266.968,157.521,267.248z"/>
	<path style="fill:#E86464;" d="M222.007,287.644c-0.808-0.055-1.617-0.105-2.421-0.174
		C220.39,287.54,221.199,287.589,222.007,287.644z"/>
	<path style="fill:#E86464;" d="M323.341,255.312L363.903,160h-45.617l-28.228,115.803
		C302.109,270.486,313.294,263.568,323.341,255.312z"/>
	<path style="fill:#E86464;" d="M217.775,287.292c-0.755-0.074-1.511-0.142-2.263-0.228
		C216.264,287.15,217.02,287.218,217.775,287.292z"/>
	<path style="fill:#E86464;" d="M147.771,260.788c-0.419-0.303-0.839-0.606-1.255-0.913
		C146.932,260.182,147.351,260.485,147.771,260.788z"/>
	<path style="fill:#E86464;" d="M154.206,265.178c-0.446-0.287-0.893-0.573-1.336-0.865
		C153.313,264.605,153.76,264.891,154.206,265.178z"/>
	<path style="fill:#E86464;" d="M150.955,263.024c-0.432-0.295-0.864-0.589-1.293-0.888
		C150.09,262.435,150.523,262.729,150.955,263.024z"/>
	<path style="fill:#E86464;" d="M239.649,220.026v60.521c5.752,2.148,11.682,3.858,17.763,5.078
		c-5.818,1.038-11.738,1.783-17.763,2.138v0.02c11.164-0.585,21.991-2.433,32.338-5.419L301.814,160h-2.879
		C287.289,183.632,263.304,206.701,239.649,220.026z"/>
	<path style="fill:#E86464;" d="M210.07,1.659c2.383-0.364,4.786-0.67,7.207-0.916C214.857,0.989,212.454,1.295,210.07,1.659z"/>
	<path style="fill:#E86464;" d="M181.238,9.213c7.005-2.64,14.265-4.758,21.741-6.288C195.503,4.455,188.243,6.574,181.238,9.213z"
		/>
	<path style="fill:#E86464;" d="M164.818,16.612c1.052-0.556,2.112-1.099,3.18-1.63C166.93,15.512,165.87,16.055,164.818,16.612z"/>
	<path style="fill:#E86464;" d="M149.901,25.693c3.904-2.714,7.948-5.24,12.121-7.564C157.849,20.454,153.805,22.979,149.901,25.693
		z"/>
	<path style="fill:#E86464;" d="M170.722,13.662c1.313-0.618,2.637-1.217,3.971-1.797C173.358,12.445,172.035,13.044,170.722,13.662
		z"/>
	<path style="fill:#E86464;" d="M213.632,286.825c-0.72-0.092-1.442-0.177-2.158-0.279
		C212.19,286.648,212.912,286.733,213.632,286.825z"/>
	<path style="fill:#E86464;" d="M141.054,32.358c1.299-1.059,2.617-2.096,3.953-3.11C143.671,30.263,142.353,31.299,141.054,32.358z
		"/>
	<path style="fill:#E86464;" d="M209.556,286.246c-0.696-0.109-1.394-0.212-2.087-0.331
		C208.162,286.035,208.86,286.137,209.556,286.246z"/>
	<path style="fill:#FFE6D2;" d="M298.935,160h-59.287v60.026C263.304,206.701,287.289,183.632,298.935,160z"/>
	<path style="fill:#FFE6D2;" d="M223.649,219.63V160h-58.584C176.596,183.398,200.222,206.247,223.649,219.63z"/>
	<path style="fill:#FFE6D2;" d="M262.696,88c-11.982,0-22.83,4.958-30.696,12.973C224.135,92.958,213.287,88,201.304,88
		c-24.017,0-43.486,19.906-43.486,44.462c0,3.776,0.483,7.636,1.387,11.538h145.59c0.903-3.902,1.387-7.763,1.387-11.538
		C306.182,107.906,286.713,88,262.696,88z"/>
	<path style="fill:#D2464B;" d="M179.924,233.69l11.711,48.573c0.073,0.021,0.148,0.04,0.221,0.061
		c0.614,0.178,1.233,0.343,1.85,0.513c0.663,0.182,1.324,0.37,1.991,0.543c0.633,0.165,1.271,0.315,1.908,0.471
		c0.658,0.161,1.314,0.328,1.975,0.48c0.653,0.15,1.311,0.286,1.966,0.427c0.653,0.141,1.303,0.287,1.959,0.419
		c0.673,0.135,1.352,0.255,2.028,0.381c0.645,0.12,1.288,0.246,1.936,0.358c0.693,0.119,1.391,0.222,2.087,0.331
		c0.639,0.1,1.275,0.207,1.917,0.299c0.716,0.102,1.438,0.188,2.158,0.279c0.627,0.08,1.251,0.168,1.881,0.24
		c0.751,0.086,1.508,0.154,2.263,0.228c0.604,0.059,1.205,0.127,1.811,0.179c0.804,0.069,1.613,0.118,2.421,0.174
		c0.548,0.038,1.093,0.086,1.642,0.117v-14.576C206.591,263.769,191.671,250.218,179.924,233.69z"/>
	<path style="fill:#D2464B;" d="M239.649,280.547v7.216c6.025-0.355,11.945-1.1,17.763-2.138
		C251.331,284.405,245.401,282.695,239.649,280.547z"/>
	<path style="fill:#D2464B;" d="M141.596,256.069c0.609,0.492,1.22,0.981,1.837,1.463c0.404,0.316,0.811,0.627,1.219,0.938
		c0.618,0.472,1.238,0.942,1.864,1.405c0.416,0.307,0.836,0.61,1.255,0.913c0.627,0.453,1.256,0.905,1.891,1.348
		c0.429,0.299,0.861,0.593,1.293,0.888c0.636,0.434,1.272,0.865,1.915,1.289c0.443,0.292,0.89,0.578,1.336,0.865
		c0.641,0.412,1.282,0.823,1.93,1.225c0.459,0.285,0.922,0.564,1.385,0.844c0.646,0.391,1.293,0.782,1.945,1.163
		c0.472,0.276,0.948,0.545,1.424,0.815c0.652,0.371,1.305,0.742,1.963,1.103c0.487,0.267,0.978,0.526,1.467,0.788
		c0.657,0.35,1.313,0.701,1.976,1.042c0.502,0.258,1.008,0.508,1.513,0.76c0.66,0.329,1.319,0.659,1.984,0.978
		c0.518,0.249,1.041,0.489,1.563,0.731c0.661,0.308,1.322,0.616,1.988,0.914c0.078,0.035,0.157,0.067,0.235,0.102L145.7,160h-45.631
		l40.157,94.954c0.064,0.053,0.129,0.105,0.194,0.158C140.809,255.433,141.203,255.751,141.596,256.069z"/>
	<path style="fill:#D2464B;" d="M151.69,144c0.104-0.005,0.207,0,0.31,0c0-70.843,45.512-129.605,105.412-141.625
		C249.149,0.901,240.687,0,232,0c-4.971,0-9.882,0.252-14.723,0.743c-2.42,0.246-4.823,0.552-7.207,0.916s-4.748,0.787-7.091,1.266
		c-7.476,1.53-14.736,3.648-21.741,6.288c-2.208,0.832-4.39,1.717-6.545,2.652c-1.334,0.579-2.658,1.178-3.971,1.797
		c-0.914,0.43-1.821,0.87-2.724,1.319c-1.068,0.531-2.128,1.074-3.18,1.63c-0.938,0.496-1.87,1.001-2.796,1.517
		c-4.172,2.325-8.217,4.85-12.121,7.564c-1.657,1.152-3.289,2.336-4.894,3.555c-1.336,1.014-2.654,2.051-3.953,3.11
		c-0.379,0.309-0.757,0.619-1.133,0.932c-1.497,1.247-2.97,2.522-4.415,3.827c-0.172,0.155-0.345,0.31-0.516,0.466
		c-1.618,1.476-3.204,2.987-4.754,4.535c-0.02,0.02-0.04,0.039-0.06,0.058c-0.02,0.02-0.039,0.04-0.058,0.06
		c-1.548,1.549-3.059,3.135-4.535,4.754c-0.156,0.171-0.311,0.344-0.466,0.516c-1.305,1.445-2.58,2.917-3.827,4.415
		c-0.313,0.376-0.623,0.754-0.932,1.133c-6.743,8.268-12.583,17.299-17.377,26.944c-0.449,0.903-0.889,1.811-1.319,2.724
		c-0.751,1.594-1.477,3.201-2.17,4.826c-0.199,0.467-0.392,0.937-0.586,1.406c-0.584,1.41-1.145,2.831-1.684,4.263
		c-0.282,0.749-0.56,1.5-0.83,2.255c-0.473,1.322-0.926,2.653-1.361,3.993c-0.816,2.51-1.566,5.05-2.246,7.619
		c-0.156,0.59-0.309,1.182-0.458,1.775c-0.445,1.774-0.857,3.56-1.236,5.359c-1.059,5.036-1.859,10.168-2.377,15.383
		c-0.23,2.314-0.408,4.644-0.527,6.99c-0.124,2.453-0.187,4.922-0.187,7.406c0.026,0,0.051,0.003,0.077,0.004H151.69z"/>
	<polygon style="fill:#D7DCE1;" points="239.649,287.763 239.649,280.547 239.649,220.026 239.649,160 223.649,160 223.649,219.63 
		223.649,273.185 223.649,287.761 223.649,408 239.649,408 239.649,287.783 	"/>
	<polygon style="fill:#D7DCE1;" points="179.924,233.69 162.158,160 145.7,160 173.581,275.644 173.582,275.651 205.49,408 208,408 
		221.949,408 191.635,282.263 	"/>
	<path style="fill:#D7DCE1;" d="M151.69,144h0.358c-0.016,0-0.032-0.001-0.048,0C151.897,144,151.794,143.995,151.69,144z"/>
	<polygon style="fill:#D7DCE1;" points="318.286,160 301.814,160 271.987,282.364 241.362,408 257.835,408 290.059,275.803 	"/>
	<path style="fill:#D7DCE1;" d="M80.539,149.13c0.02-0.052,0.037-0.106,0.058-0.158C80.576,149.024,80.559,149.078,80.539,149.13z"
		/>
	<path style="fill:#D7DCE1;" d="M140.226,254.954L100.069,160H88c-3.291,0-6.115-1.987-7.344-4.827L187.58,408h17.371
		L140.226,254.954z"/>
	<path style="fill:#D7DCE1;" d="M84.077,145.032c0.025-0.014,0.049-0.031,0.074-0.045C84.125,145.001,84.102,145.018,84.077,145.032
		z"/>
	<path style="fill:#D7DCE1;" d="M80.158,153.585c-0.039-0.195-0.066-0.394-0.091-0.594
		C80.093,153.189,80.118,153.387,80.158,153.585z"/>
	<path style="fill:#D7DCE1;" d="M80.288,149.901c0.018-0.068,0.032-0.137,0.052-0.203C80.32,149.765,80.306,149.833,80.288,149.901z
		"/>
	<path style="fill:#D7DCE1;" d="M85.652,144.351c0.004-0.001,0.009-0.002,0.013-0.003C85.661,144.349,85.657,144.35,85.652,144.351z
		"/>
	<path style="fill:#D7DCE1;" d="M80.041,151.199c-0.054,0.532-0.055,1.073,0.001,1.615C80.014,152.546,80,152.275,80,152
		C80,151.729,80.014,151.462,80.041,151.199z"/>
	<path style="fill:#D7DCE1;" d="M80.837,148.452c0.031-0.062,0.057-0.125,0.089-0.186C80.894,148.327,80.868,148.391,80.837,148.452
		z"/>
	<path style="fill:#D7DCE1;" d="M81.574,147.248c0.072-0.097,0.141-0.197,0.217-0.29C81.715,147.051,81.646,147.15,81.574,147.248z"
		/>
	<path style="fill:#D7DCE1;" d="M80.087,150.886c0.021-0.149,0.039-0.3,0.068-0.447C80.125,150.587,80.108,150.737,80.087,150.886z"
		/>
	<path style="fill:#D7DCE1;" d="M81.181,147.83c0.049-0.079,0.094-0.161,0.145-0.239C81.275,147.669,81.23,147.75,81.181,147.83z"/>
	<path style="fill:#D7DCE1;" d="M82.549,146.155c0.109-0.102,0.217-0.206,0.332-0.302C82.766,145.949,82.659,146.053,82.549,146.155
		z"/>
	<path style="fill:#D7DCE1;" d="M83.192,145.616c0.1-0.076,0.198-0.155,0.302-0.226C83.389,145.461,83.292,145.541,83.192,145.616z"
		/>
	<path style="fill:#D7DCE1;" d="M82.024,146.694c0.095-0.107,0.188-0.216,0.289-0.318C82.212,146.478,82.119,146.586,82.024,146.694
		z"/>
	<path style="fill:#D7DCE1;" d="M88.077,144c-0.026,0-0.051-0.004-0.077-0.004c-0.531,0-1.065,0.054-1.598,0.164
		c0.516-0.104,1.05-0.16,1.598-0.16H88.077z"/>
	<path style="fill:#D7DCE1;" d="M380.517,145.398c0.098,0.067,0.191,0.142,0.286,0.214
		C380.708,145.54,380.616,145.466,380.517,145.398z"/>
	<path style="fill:#D7DCE1;" d="M383.848,150.455c0.022,0.112,0.035,0.226,0.052,0.339
		C383.882,150.681,383.87,150.567,383.848,150.455z"/>
	<path style="fill:#D7DCE1;" d="M383.408,148.984c0.022,0.054,0.039,0.11,0.06,0.164
		C383.447,149.094,383.43,149.038,383.408,148.984z"/>
	<path style="fill:#D7DCE1;" d="M379.864,144.996c0.023,0.013,0.045,0.028,0.068,0.041
		C379.909,145.024,379.888,145.009,379.864,144.996z"/>
	<path style="fill:#D7DCE1;" d="M384,152.002c0,0.274-0.014,0.545-0.041,0.812C383.987,152.542,384,152.272,384,152.002z"/>
	<path style="fill:#D7DCE1;" d="M383.664,149.712c0.019,0.063,0.032,0.129,0.05,0.193
		C383.696,149.841,383.683,149.776,383.664,149.712z"/>
	<path style="fill:#D7DCE1;" d="M381.127,145.86c0.112,0.094,0.217,0.195,0.324,0.294
		C381.344,146.055,381.239,145.954,381.127,145.86z"/>
	<path style="fill:#D7DCE1;" d="M382.679,147.6c0.053,0.08,0.099,0.164,0.149,0.246C382.779,147.764,382.732,147.68,382.679,147.6z"
		/>
	<path style="fill:#D7DCE1;" d="M381.694,146.382c0.101,0.102,0.194,0.211,0.289,0.318
		C381.888,146.593,381.795,146.484,381.694,146.382z"/>
	<path style="fill:#D7DCE1;" d="M383.961,151.216c0.024,0.244,0.036,0.491,0.037,0.74
		C383.997,151.708,383.985,151.461,383.961,151.216z"/>
	<path style="fill:#D7DCE1;" d="M376,160h-12.097l-40.562,95.312L258.361,408h17.385l107.587-252.804
		C382.099,158.024,379.282,160,376,160z"/>
	<path style="fill:#D7DCE1;" d="M382.214,146.964c0.078,0.095,0.148,0.197,0.221,0.296
		C382.362,147.16,382.291,147.06,382.214,146.964z"/>
	<path style="fill:#D7DCE1;" d="M383.079,148.277c0.033,0.063,0.062,0.13,0.093,0.194
		C383.141,148.406,383.112,148.341,383.079,148.277z"/>
	<path style="fill:#D7DCE1;" d="M376,144c0.55,0,1.088,0.056,1.607,0.162c-0.535-0.112-1.073-0.167-1.607-0.167
		c-0.041,0-0.082,0.005-0.123,0.006H376z"/>
	<path style="fill:#8C645F;" d="M190.038,450.263L184,408L190.038,450.263c1.126,7.882,7.877,13.737,15.839,13.737h0
		C197.915,464,191.164,458.145,190.038,450.263z"/>
	<path style="fill:#8C645F;" d="M258.361,408h-0.526h-16.472h-1.714h-16h-1.699H208l6.038,42.263
		c1.126,7.882,7.877,13.737,15.839,13.737h28.246c7.962,0,14.713-5.855,15.839-13.737L280,408h-4.254H258.361z"/>
	<path style="fill:#7D5050;" d="M214.038,450.263L208,408h-2.51h-0.54H187.58H184l6.038,42.263
		c1.126,7.882,7.877,13.737,15.839,13.737h24C221.915,464,215.164,458.145,214.038,450.263z"/>
	<path style="fill:#BEC3C8;" d="M88,160h12.069H145.7h16.459h2.907h58.584h16h59.287h2.879h16.472h45.617H376
		c3.282,0,6.099-1.976,7.332-4.804c0.324-0.743,0.542-1.542,0.626-2.383c0.027-0.267,0.041-0.538,0.041-0.812
		c0-0.001,0-0.001,0-0.002c0-0.015-0.002-0.029-0.002-0.044c-0.001-0.25-0.014-0.497-0.037-0.74
		c-0.014-0.143-0.04-0.281-0.061-0.422c-0.017-0.113-0.03-0.228-0.052-0.339c-0.036-0.187-0.085-0.368-0.134-0.55
		c-0.017-0.064-0.031-0.13-0.05-0.193c-0.057-0.192-0.125-0.378-0.196-0.563c-0.021-0.054-0.038-0.11-0.06-0.164
		c-0.071-0.175-0.153-0.345-0.236-0.513c-0.032-0.064-0.06-0.131-0.093-0.194c-0.078-0.148-0.164-0.29-0.251-0.431
		c-0.05-0.082-0.097-0.166-0.149-0.246c-0.077-0.117-0.161-0.228-0.244-0.34c-0.073-0.099-0.144-0.2-0.221-0.296
		c-0.074-0.091-0.154-0.176-0.231-0.264c-0.095-0.107-0.188-0.216-0.289-0.318c-0.078-0.079-0.162-0.152-0.243-0.228
		c-0.107-0.1-0.212-0.201-0.324-0.294c-0.104-0.087-0.215-0.167-0.324-0.248c-0.095-0.072-0.188-0.146-0.286-0.214
		c-0.189-0.129-0.385-0.248-0.585-0.361c-0.023-0.013-0.045-0.028-0.068-0.041c-0.696-0.385-1.454-0.671-2.257-0.834
		C377.088,144.056,376.551,144,376,144h-0.123h-71.082h-145.59h-7.157h-0.358H88.077H88c-0.547,0-1.081,0.056-1.598,0.16
		c-0.25,0.051-0.496,0.115-0.737,0.188c-0.004,0.001-0.009,0.002-0.013,0.003c-0.526,0.161-1.028,0.375-1.502,0.635
		c-0.025,0.014-0.049,0.031-0.074,0.045c-0.199,0.112-0.395,0.23-0.583,0.359c-0.104,0.071-0.202,0.15-0.302,0.226
		c-0.104,0.078-0.211,0.154-0.31,0.237c-0.115,0.096-0.223,0.2-0.332,0.302c-0.079,0.074-0.161,0.144-0.237,0.221
		c-0.101,0.102-0.194,0.211-0.289,0.318c-0.078,0.088-0.158,0.173-0.232,0.264c-0.076,0.094-0.145,0.193-0.217,0.29
		c-0.084,0.114-0.17,0.226-0.248,0.344c-0.051,0.078-0.096,0.159-0.145,0.239c-0.088,0.144-0.176,0.287-0.255,0.436
		c-0.032,0.061-0.059,0.124-0.089,0.186c-0.085,0.171-0.168,0.342-0.24,0.52c-0.021,0.052-0.038,0.106-0.058,0.158
		c-0.072,0.187-0.141,0.374-0.199,0.568c-0.02,0.067-0.034,0.136-0.052,0.203c-0.048,0.178-0.097,0.355-0.133,0.538
		c-0.029,0.147-0.047,0.297-0.068,0.447c-0.015,0.105-0.035,0.207-0.046,0.313C80.014,151.462,80,151.729,80,152
		c0,0.275,0.014,0.546,0.041,0.813c0.006,0.06,0.019,0.118,0.026,0.177c0.025,0.2,0.051,0.399,0.091,0.594
		c0.111,0.552,0.28,1.083,0.498,1.588C81.885,158.013,84.709,160,88,160z"/>
</g>
<g>
</g>
<g>
</g>
<g>
</g>
<g>
</g>
<g>
</g>
<g>
</g>
<g>
</g>
<g>
</g>
<g>
</g>
<g>
</g>
<g>
</g>
<g>
</g>
<g>
</g>
<g>
</g>
<g>
</g>
</svg>
