<?xml version="1.0" encoding="iso-8859-1"?>
<!-- Generator: Adobe Illustrator 19.0.0, SVG Export Plug-In . SVG Version: 6.00 Build 0)  -->
<svg version="1.1" id="Capa_1" xmlns="http://www.w3.org/2000/svg" xmlns:xlink="http://www.w3.org/1999/xlink" x="0px" y="0px"
	 viewBox="0 0 464 464" style="enable-background:new 0 0 464 464;" xml:space="preserve">
<g>
	<path style="fill:#D2504B;" d="M232.004,143.83c-19.819-0.807-39.319-4.418-58.254-7.924
		c-36.602-6.781-74.469-13.805-112.578,0.609c-4.133,1.563-6.219,6.18-4.656,10.313c1.563,4.141,6.211,6.203,10.313,4.656
		c33.93-12.836,67.969-6.523,104.008,0.156c21.605,4.001,43.924,8.125,67.277,8.339C234.315,155.733,232,150.133,232,144
		C232,143.943,232.004,143.887,232.004,143.83z"/>
	<path style="fill:#FFB996;" d="M270.13,160c-3.809-4.249-6.13-9.858-6.13-16c0,4.41-3.59,8-8,8s-8-3.59-8-8s3.59-8,8-8s8,3.59,8,8
		c0-7.092,3.094-13.472,8-17.87c-4.249-3.809-9.858-6.13-16-6.13c-13.177,0-23.903,10.674-23.996,23.83
		c0,0.057-0.004,0.113-0.004,0.17c0,6.133,2.315,11.733,6.112,15.979c0.006,0.007,0.012,0.014,0.018,0.021H270.13z"/>
	<path style="fill:#FFD7B4;" d="M264,144c0,6.142,2.322,11.751,6.13,16h35.74c3.809-4.249,6.13-9.858,6.13-16
		c0-13.234-10.766-24-24-24c-6.142,0-11.751,2.322-16,6.13C267.094,130.528,264,136.908,264,144z M288,136c4.41,0,8,3.59,8,8
		s-3.59,8-8,8s-8-3.59-8-8S283.59,136,288,136z"/>
	<path style="fill:#FFEBE1;" d="M450.648,303.542c2.309-0.811,4.131-2.647,4.92-4.966
		C454.779,300.895,452.957,302.731,450.648,303.542z"/>
	<path style="fill:#FFEBE1;" d="M24,304c-1.105,0-2.183-0.112-3.225-0.325C21.817,303.888,22.895,304,24,304z"/>
	<path style="fill:#FFEBE1;" d="M8.325,291.225c1.279,6.249,6.201,11.172,12.45,12.45C14.526,302.396,9.604,297.474,8.325,291.225z"
		/>
	<path style="fill:#FFEBE1;" d="M456,246.816c0-8.361-6.437-15.312-14.773-15.953L352,224h-18.725c-3.2,0-6.093-1.907-7.353-4.849
		l-17.143-40c-2.262-5.279,1.61-11.151,7.353-11.151h7.708c0.066,0.041,0.122,0.075,0.183,0.113
		c-2.829-4.993-8.131-8.113-13.912-8.113h-4.242h-35.74h-32H89.889c-6.06,0-11.601,3.424-14.311,8.844L48,224H24
		c-8.837,0-16,7.163-16,16v8h448V246.816z M80,224l19.844-46.303c2.521-5.883,8.306-9.697,14.706-9.697H277.45
		c6.4,0,12.185,3.814,14.706,9.697L312,224H80z"/>
	<path style="fill:#FFEBE1;" d="M8.325,291.225C8.112,290.183,8,289.104,8,288C8,289.104,8.112,290.183,8.325,291.225z"/>
	<path style="fill:#FFEBE1;" d="M455.959,296.818c-0.041,0.407-0.122,0.802-0.223,1.189
		C455.836,297.62,455.917,297.225,455.959,296.818z"/>
	<path style="fill:#FFE1CD;" d="M32,280h16c7.298-9.715,18.914-16,32-16c13.086,0,24.703,6.285,32,16h16c0-4.418,3.582-8,8-8h192
		c4.418,0,8,3.582,8,8h16c7.298-9.715,18.914-16,32-16s24.703,6.285,32,16h16c0-4.418,3.582-8,8-8h16v-24H8v24h16
		C28.418,272,32,275.582,32,280z"/>
	<path style="fill:#F0D4BE;" d="M336,280c0,4.418-3.582,8-8,8H136c-4.418,0-8-3.582-8-8h-16c5.022,6.686,8,14.995,8,24h224
		c0-9.005,2.977-17.314,8-24H336z"/>
	<path style="fill:#F0D4BE;" d="M432,280h-16c5.022,6.686,8,14.995,8,24h24c0.93,0,1.818-0.167,2.648-0.458
		c2.309-0.811,4.131-2.647,4.92-4.966c0.064-0.187,0.118-0.377,0.168-0.569c0.1-0.387,0.181-0.781,0.223-1.189
		c0.027-0.269,0.041-0.542,0.041-0.818v-8h-16C435.582,288,432,284.418,432,280z"/>
	<path style="fill:#F0D4BE;" d="M32,280c0,4.418-3.582,8-8,8H8c0,1.104,0.112,2.183,0.325,3.225
		c1.279,6.249,6.201,11.172,12.45,12.45C21.817,303.888,22.895,304,24,304h16c0-9.005,2.977-17.314,8-24H32z"/>
	<path style="fill:#55323C;" d="M80,264c-13.086,0-24.703,6.285-32,16c-5.022,6.686-8,14.995-8,24c0,22.091,17.909,40,40,40
		c22.091,0,40-17.909,40-40c0-9.005-2.977-17.314-8-24C104.703,270.285,93.086,264,80,264z M80,328c-13.255,0-24-10.745-24-24
		s10.745-24,24-24s24,10.745,24,24S93.255,328,80,328z"/>
	<path style="fill:#DEE1E9;" d="M80,280c-13.255,0-24,10.745-24,24s10.745,24,24,24s24-10.745,24-24S93.255,280,80,280z M80,312
		c-4.418,0-8-3.582-8-8s3.582-8,8-8s8,3.582,8,8S84.418,312,80,312z"/>
	<circle style="fill:#FFFFFF;" cx="80" cy="304" r="8"/>
	<path style="fill:#55323C;" d="M384,264c-13.086,0-24.703,6.285-32,16c-5.022,6.686-8,14.995-8,24c0,22.091,17.909,40,40,40
		s40-17.909,40-40c0-9.005-2.977-17.314-8-24C408.703,270.285,397.086,264,384,264z M384,328c-13.255,0-24-10.745-24-24
		s10.745-24,24-24s24,10.745,24,24S397.255,328,384,328z"/>
	<path style="fill:#DEE1E9;" d="M384,280c-13.255,0-24,10.745-24,24s10.745,24,24,24s24-10.745,24-24S397.255,280,384,280z M384,312
		c-4.418,0-8-3.582-8-8s3.582-8,8-8s8,3.582,8,8S388.418,312,384,312z"/>
	<circle style="fill:#FFFFFF;" cx="384" cy="304" r="8"/>
	<path style="fill:#55323C;" d="M277.45,168H114.55c-6.4,0-12.185,3.814-14.706,9.697L80,224h232l-19.844-46.303
		C289.635,171.814,283.85,168,277.45,168z"/>
	<path style="fill:#55323C;" d="M316.132,168c-5.743,0-9.616,5.872-7.353,11.151l17.143,40c1.261,2.941,4.153,4.849,7.353,4.849H352
		l-27.928-55.857c-0.017-0.011-0.032-0.02-0.048-0.03c-0.061-0.038-0.117-0.072-0.183-0.113H316.132z"/>
	<path style="fill:#FFEBE1;" d="M328,272H136c-4.418,0-8,3.582-8,8s3.582,8,8,8h192c4.418,0,8-3.582,8-8S332.418,272,328,272z"/>
	<path style="fill:#FFEBE1;" d="M456,272h-16c-4.418,0-8,3.582-8,8s3.582,8,8,8h16c4.418,0,8-3.582,8-8S460.418,272,456,272z"/>
	<path style="fill:#FFEBE1;" d="M32,280c0-4.418-3.582-8-8-8H8c-4.418,0-8,3.582-8,8s3.582,8,8,8h16C28.418,288,32,284.418,32,280z"
		/>
</g>
<g>
</g>
<g>
</g>
<g>
</g>
<g>
</g>
<g>
</g>
<g>
</g>
<g>
</g>
<g>
</g>
<g>
</g>
<g>
</g>
<g>
</g>
<g>
</g>
<g>
</g>
<g>
</g>
<g>
</g>
</svg>
