<?xml version="1.0" encoding="iso-8859-1"?>
<!-- Generator: Adobe Illustrator 19.0.0, SVG Export Plug-In . SVG Version: 6.00 Build 0)  -->
<svg version="1.1" id="Capa_1" xmlns="http://www.w3.org/2000/svg" xmlns:xlink="http://www.w3.org/1999/xlink" x="0px" y="0px"
	 viewBox="0 0 464 464" style="enable-background:new 0 0 464 464;" xml:space="preserve">
<g>
	<path style="fill:#FFEBE1;" d="M132.775,48.325C133.817,48.112,134.895,48,136,48C134.895,48,133.817,48.112,132.775,48.325z"/>
	<path style="fill:#FFEBE1;" d="M130.704,48.916c0.674-0.237,1.36-0.446,2.071-0.591C132.064,48.471,131.378,48.68,130.704,48.916z"
		/>
	<path style="fill:#FFEBE1;" d="M176,64v80h8c0-7.153,4.696-13.207,11.172-15.255c-3.131-6.027-2.171-13.628,2.887-18.686
		c5.058-5.058,12.659-6.018,18.686-2.887C218.793,100.696,224.847,96,232,96s13.207,4.696,15.255,11.172
		c6.027-3.131,13.628-2.171,18.686,2.887c5.058,5.058,6.018,12.659,2.887,18.686C275.304,130.793,280,136.847,280,144h64V64
		c0-8.837-7.163-16-16-16H192C183.164,48,176,55.163,176,64z"/>
	<path style="fill:#FFEBE1;" d="M120.528,59.987c0.09-0.348,0.184-0.694,0.297-1.033C120.712,59.292,120.618,59.638,120.528,59.987z
		"/>
	<path style="fill:#F5E1D2;" d="M92.775,144.325C93.817,144.112,94.895,144,96,144C94.895,144,93.817,144.112,92.775,144.325z"/>
	<path style="fill:#F5E1D2;" d="M80.528,155.987c0.09-0.348,0.184-0.694,0.297-1.033C80.712,155.292,80.618,155.638,80.528,155.987z
		"/>
	<path style="fill:#F5E1D2;" d="M90.704,144.916c0.674-0.237,1.36-0.446,2.071-0.591C92.064,144.471,91.378,144.68,90.704,144.916z"
		/>
	<path style="fill:#F5E1D2;" d="M288.372,252.593c-24.501-12.385-44.159-34.011-55.039-60.66C232.893,191.969,232.45,192,232,192
		s-0.893-0.031-1.333-0.067c-10.88,26.649-30.538,48.276-55.039,60.66C175.867,253.692,176,254.83,176,256h112
		C288,254.83,288.133,253.692,288.372,252.593z"/>
	<path style="fill:#F5E1D2;" d="M384,256v-3.645c-0.127,0.065-0.257,0.125-0.384,0.19C383.861,253.659,384,254.812,384,256z"/>
	<path style="fill:#F5E1D2;" d="M268.828,159.255c3.131,6.027,2.171,13.628-2.887,18.686c-5.058,5.058-12.659,6.018-18.686,2.887
		c-0.154,0.486-0.328,0.962-0.525,1.426c9.5,25.924,28.355,46.763,52.028,57.599c-2.601-5.871-1.512-12.982,3.301-17.795
		c5.058-5.058,12.659-6.018,18.686-2.887C322.793,212.696,328.847,208,336,208s13.207,4.696,15.255,11.172
		c6.027-3.131,13.628-2.171,18.686,2.887c4.793,4.793,5.895,11.866,3.334,17.723c3.11-1.431,6.142-3.024,9.077-4.788
		c0.529-0.318,1.083-0.557,1.648-0.736V160c0-8.837-7.163-16-16-16h-24h-64C280,151.153,275.304,157.207,268.828,159.255z"/>
	<path style="fill:#F5E1D2;" d="M152,160v57.438c3.626,0.31,7.166,1.846,9.941,4.621c4.813,4.813,5.903,11.923,3.301,17.795
		c23.673-10.836,42.528-31.675,52.028-57.599c-0.197-0.464-0.372-0.941-0.525-1.426c-6.027,3.131-13.628,2.171-18.686-2.887
		c-5.058-5.058-6.018-12.659-2.887-18.686C188.696,157.207,184,151.153,184,144h-8V64c0-8.837,7.164-16,16-16h-56
		c-1.105,0-2.183,0.112-3.225,0.325c-0.711,0.146-1.398,0.355-2.071,0.591c-4.654,1.635-8.32,5.348-9.879,10.037
		c-0.113,0.339-0.207,0.685-0.297,1.033C120.195,61.271,120,62.611,120,64v80h48C159.164,144,152,151.163,152,160z"/>
	<path style="fill:#F0D8C5;" d="M90.725,239.782c-2.561-5.857-1.459-12.93,3.334-17.723c5.058-5.058,12.659-6.018,18.686-2.887
		C114.793,212.696,120.847,208,128,208s13.207,4.696,15.255,11.172c2.721-1.414,5.761-1.989,8.745-1.734V160c0-8.837,7.164-16,16-16
		h-48H96c-1.105,0-2.183,0.112-3.225,0.325c-0.711,0.146-1.398,0.355-2.071,0.591c-4.654,1.635-8.32,5.348-9.879,10.037
		c-0.113,0.339-0.207,0.685-0.297,1.033C80.195,157.271,80,158.611,80,160v74.258c0.565,0.179,1.119,0.418,1.648,0.736
		C84.582,236.759,87.614,238.351,90.725,239.782z"/>
	<path style="fill:#F0D8C5;" d="M80,252.355V256c0-1.188,0.139-2.341,0.384-3.455C80.257,252.48,80.127,252.42,80,252.355z"/>
	<path style="fill:#AAAFB9;" d="M128,400H24H8c-4.418,0-8,3.582-8,8s3.582,8,8,8h272v-16H128z"/>
	<path style="fill:#B9BEC8;" d="M456,400h-16H280v16h176c4.418,0,8-3.582,8-8S460.418,400,456,400z"/>
	<path style="fill:#FFEBE1;" d="M24.528,267.987c0.09-0.348,0.184-0.694,0.297-1.033C24.712,267.292,24.618,267.638,24.528,267.987z
		"/>
	<path style="fill:#FFEBE1;" d="M337.333,303.933C336.893,303.969,336.45,304,336,304s-0.893-0.031-1.333-0.067
		C317.365,346.312,277.861,376,232,376s-85.365-29.688-102.667-72.067C128.893,303.969,128.45,304,128,304v96h152h160v-24
		C394.139,376,354.635,346.312,337.333,303.933z"/>
	<path style="fill:#FFEBE1;" d="M232,360c40.471,0,75.173-27.274,89.27-65.745c-0.197-0.464-0.372-0.941-0.525-1.426
		c-6.027,3.131-13.628,2.171-18.686-2.887c-5.058-5.058-6.018-12.659-2.887-18.686C292.696,269.207,288,263.153,288,256H176
		c0,7.153-4.696,13.207-11.172,15.255c3.131,6.027,2.171,13.628-2.887,18.686c-5.058,5.058-12.659,6.018-18.686,2.887
		c-0.154,0.486-0.328,0.962-0.525,1.426C156.827,332.726,191.529,360,232,360z"/>
	<path style="fill:#FFEBE1;" d="M34.704,256.916c0.674-0.237,1.36-0.446,2.071-0.591C36.064,256.471,35.378,256.68,34.704,256.916z"
		/>
	<path style="fill:#FFEBE1;" d="M36.775,256.325C37.817,256.112,38.895,256,40,256C38.895,256,37.817,256.112,36.775,256.325z"/>
	<path style="fill:#FFEBE1;" d="M372.828,271.255c3.131,6.027,2.171,13.628-2.887,18.686c-5.058,5.058-12.659,6.018-18.686,2.887
		c-0.154,0.486-0.328,0.962-0.525,1.426C364.827,332.726,399.529,360,440,360v-88c0-8.837-7.163-16-16-16h-40
		C384,263.153,379.304,269.207,372.828,271.255z"/>
	<path style="fill:#FFD76E;" d="M230.667,191.933c-6.038-0.499-11.127-4.34-13.397-9.678c-9.5,25.924-28.355,46.763-52.028,57.599
		c-0.133,0.299-0.262,0.599-0.414,0.892c5.416,1.713,9.58,6.23,10.8,11.848C200.129,240.208,219.787,218.582,230.667,191.933z"/>
	<path style="fill:#FFD76E;" d="M91.172,240.745c-0.164-0.316-0.305-0.639-0.447-0.963c-3.11-1.431-6.142-3.023-9.077-4.788
		c-0.529-0.318-1.083-0.557-1.648-0.736c-3.284-1.042-6.98,0.212-8.973,3.201c-2.57,3.855-1.304,9.031,2.673,11.408
		c2.061,1.232,4.162,2.394,6.3,3.488c0.127,0.065,0.257,0.125,0.384,0.19C81.617,246.95,85.771,242.453,91.172,240.745z"/>
	<path style="fill:#FFD76E;" d="M373.276,239.782c-0.142,0.324-0.283,0.647-0.447,0.963c5.401,1.708,9.554,6.205,10.787,11.8
		c0.127-0.065,0.257-0.125,0.384-0.19c2.137-1.094,4.239-2.256,6.3-3.488c3.977-2.377,5.243-7.552,2.673-11.408
		c-1.993-2.989-5.689-4.243-8.973-3.201c-0.565,0.179-1.119,0.418-1.648,0.736C379.418,236.758,376.386,238.351,373.276,239.782z"/>
	<path style="fill:#FFD76E;" d="M233.333,191.933c10.88,26.649,30.538,48.276,55.039,60.66c1.219-5.618,5.383-10.135,10.8-11.848
		c-0.152-0.292-0.281-0.593-0.414-0.892c-23.673-10.836-42.528-31.675-52.028-57.599
		C244.46,187.593,239.371,191.433,233.333,191.933z"/>
	<path style="fill:#F5E1D2;" d="M128,304c-0.45,0-0.893-0.031-1.333-0.067C109.365,346.312,69.861,376,24,376v24h104V304z"/>
	<path style="fill:#F5E1D2;" d="M113.27,294.255c-0.197-0.464-0.372-0.941-0.525-1.426c-6.027,3.131-13.628,2.171-18.686-2.887
		c-5.058-5.058-6.018-12.659-2.887-18.686C84.696,269.207,80,263.153,80,256H40c-1.105,0-2.183,0.112-3.225,0.325
		c-0.711,0.146-1.398,0.355-2.071,0.591c-4.654,1.635-8.32,5.348-9.879,10.037c-0.113,0.339-0.207,0.685-0.297,1.033
		C24.195,269.271,24,270.611,24,272v88C64.471,360,99.173,332.726,113.27,294.255z"/>
	<path style="fill:#FFD76E;" d="M232,376c45.861,0,85.365-29.688,102.667-72.067c-6.038-0.499-11.127-4.34-13.397-9.678
		C307.173,332.726,272.471,360,232,360s-75.173-27.274-89.27-65.745c-2.27,5.338-7.359,9.179-13.397,9.678
		C146.635,346.312,186.139,376,232,376z"/>
	<path style="fill:#FFD76E;" d="M350.73,294.255c-2.27,5.338-7.359,9.179-13.397,9.678C354.635,346.312,394.139,376,440,376
		c4.418,0,8-3.582,8-8c0-4.418-3.582-8-8-8C399.529,360,364.827,332.726,350.73,294.255z"/>
	<path style="fill:#FFD76E;" d="M126.667,303.933c-6.038-0.499-11.127-4.34-13.397-9.678C99.173,332.726,64.471,360,24,360
		c-4.418,0-8,3.582-8,8c0,4.418,3.582,8,8,8C69.861,376,109.365,346.312,126.667,303.933z"/>
	<path style="fill:#E88470;" d="M91.172,271.255c-3.131,6.027-2.171,13.628,2.887,18.686c5.058,5.058,12.659,6.018,18.686,2.887
		c0.154,0.486,0.328,0.962,0.525,1.426c2.27,5.338,7.359,9.179,13.397,9.678C127.107,303.969,127.55,304,128,304
		s0.893-0.031,1.333-0.067c6.038-0.499,11.127-4.34,13.397-9.678c0.197-0.464,0.372-0.941,0.525-1.426
		c6.027,3.131,13.628,2.171,18.686-2.887c5.058-5.058,6.018-12.659,2.887-18.686C171.304,269.207,176,263.153,176,256
		c0-1.17-0.133-2.308-0.372-3.407c-1.219-5.618-5.383-10.135-10.8-11.848c0.152-0.292,0.281-0.593,0.414-0.892
		c2.601-5.871,1.512-12.982-3.301-17.795c-2.775-2.775-6.315-4.31-9.941-4.621c-2.984-0.255-6.024,0.32-8.745,1.734
		C141.207,212.696,135.153,208,128,208s-13.207,4.696-15.255,11.172c-6.027-3.131-13.628-2.171-18.686,2.887
		c-4.793,4.793-5.895,11.866-3.334,17.723c0.142,0.324,0.283,0.647,0.447,0.963c-5.401,1.708-9.554,6.205-10.787,11.8
		C80.139,253.659,80,254.812,80,256C80,263.153,84.696,269.207,91.172,271.255z M112,240c0-8.837,7.163-16,16-16s16,7.163,16,16
		c8.837,0,16,7.163,16,16s-7.163,16-16,16c0,8.837-7.163,16-16,16s-16-7.163-16-16c-8.837,0-16-7.163-16-16S103.163,240,112,240z"/>
	<path style="fill:#D2504B;" d="M96,256c0,8.837,7.163,16,16,16c0,8.837,7.163,16,16,16s16-7.163,16-16c8.837,0,16-7.163,16-16
		s-7.163-16-16-16c0-8.837-7.163-16-16-16s-16,7.163-16,16C103.163,240,96,247.163,96,256z M144,256c0,8.837-7.163,16-16,16
		s-16-7.163-16-16s7.163-16,16-16S144,247.163,144,256z"/>
	<circle style="fill:#BE3C3C;" cx="128" cy="256" r="16"/>
	<path style="fill:#E88470;" d="M230.667,191.933C231.107,191.969,231.55,192,232,192s0.893-0.031,1.333-0.067
		c6.038-0.499,11.127-4.34,13.397-9.678c0.197-0.464,0.372-0.941,0.525-1.426c6.027,3.131,13.628,2.171,18.686-2.887
		c5.058-5.058,6.018-12.659,2.887-18.686C275.304,157.207,280,151.153,280,144s-4.696-13.207-11.172-15.255
		c3.131-6.027,2.171-13.628-2.887-18.686c-5.058-5.058-12.659-6.018-18.686-2.887C245.207,100.696,239.153,96,232,96
		s-13.207,4.696-15.255,11.172c-6.027-3.131-13.628-2.171-18.686,2.887c-5.058,5.058-6.018,12.659-2.887,18.686
		C188.696,130.793,184,136.847,184,144s4.696,13.207,11.172,15.255c-3.131,6.027-2.171,13.628,2.887,18.686
		c5.058,5.058,12.659,6.018,18.686,2.887c0.154,0.486,0.328,0.962,0.525,1.426C219.54,187.593,224.629,191.433,230.667,191.933z
		 M200,144c0-8.837,7.163-16,16-16c0-8.837,7.163-16,16-16s16,7.163,16,16c8.837,0,16,7.163,16,16s-7.163,16-16,16
		c0,8.837-7.163,16-16,16s-16-7.163-16-16C207.163,160,200,152.837,200,144z"/>
	<path style="fill:#D2504B;" d="M232,176c8.837,0,16-7.163,16-16c8.837,0,16-7.163,16-16s-7.163-16-16-16c0-8.837-7.163-16-16-16
		s-16,7.163-16,16c-8.837,0-16,7.163-16,16s7.163,16,16,16C216,168.837,223.163,176,232,176z M232,128c8.837,0,16,7.163,16,16
		s-7.163,16-16,16s-16-7.163-16-16S223.163,128,232,128z"/>
	<circle style="fill:#BE3C3C;" cx="232" cy="144" r="16"/>
	<path style="fill:#E88470;" d="M372.828,240.745c0.164-0.316,0.305-0.639,0.447-0.963c2.561-5.857,1.459-12.93-3.334-17.723
		c-5.058-5.058-12.659-6.018-18.686-2.887C349.207,212.696,343.153,208,336,208s-13.207,4.696-15.255,11.172
		c-6.027-3.131-13.628-2.171-18.686,2.887c-4.813,4.813-5.902,11.923-3.301,17.795c0.133,0.299,0.262,0.599,0.414,0.892
		c-5.416,1.713-9.58,6.23-10.8,11.848C288.133,253.692,288,254.83,288,256c0,7.153,4.696,13.207,11.172,15.255
		c-3.131,6.027-2.171,13.628,2.887,18.686c5.058,5.058,12.659,6.018,18.686,2.887c0.154,0.486,0.328,0.962,0.525,1.426
		c2.27,5.338,7.359,9.179,13.397,9.678C335.107,303.969,335.55,304,336,304s0.893-0.031,1.333-0.067
		c6.038-0.499,11.127-4.34,13.397-9.678c0.197-0.464,0.372-0.941,0.525-1.426c6.027,3.131,13.628,2.171,18.686-2.887
		c5.058-5.058,6.018-12.659,2.887-18.686C379.304,269.207,384,263.153,384,256c0-1.188-0.139-2.341-0.384-3.455
		C382.383,246.95,378.229,242.453,372.828,240.745z M320,240c0-8.837,7.163-16,16-16s16,7.163,16,16c8.837,0,16,7.163,16,16
		s-7.163,16-16,16c0,8.837-7.163,16-16,16s-16-7.163-16-16c-8.837,0-16-7.163-16-16S311.163,240,320,240z"/>
	<path style="fill:#D2504B;" d="M304,256c0,8.837,7.163,16,16,16c0,8.837,7.163,16,16,16s16-7.163,16-16c8.837,0,16-7.163,16-16
		s-7.163-16-16-16c0-8.837-7.163-16-16-16s-16,7.163-16,16C311.163,240,304,247.163,304,256z M352,256c0,8.837-7.163,16-16,16
		s-16-7.163-16-16s7.163-16,16-16S352,247.163,352,256z"/>
	<circle style="fill:#BE3C3C;" cx="336" cy="256" r="16"/>
</g>
<g>
</g>
<g>
</g>
<g>
</g>
<g>
</g>
<g>
</g>
<g>
</g>
<g>
</g>
<g>
</g>
<g>
</g>
<g>
</g>
<g>
</g>
<g>
</g>
<g>
</g>
<g>
</g>
<g>
</g>
</svg>
