<?xml version="1.0" encoding="iso-8859-1"?>
<!-- Generator: Adobe Illustrator 19.0.0, SVG Export Plug-In . SVG Version: 6.00 Build 0)  -->
<svg version="1.1" id="Capa_1" xmlns="http://www.w3.org/2000/svg" xmlns:xlink="http://www.w3.org/1999/xlink" x="0px" y="0px"
	 viewBox="0 0 464 464" style="enable-background:new 0 0 464 464;" xml:space="preserve">
<g>
	<path style="fill:#FFEBE1;" d="M16,400c-1.105,0-2.183-0.112-3.225-0.325C13.817,399.888,14.895,400,16,400z"/>
	<path style="fill:#FFEBE1;" d="M448,64H232v336h216c8.837,0,16-7.163,16-16V80C464,71.163,456.837,64,448,64z M296,136
		c0-4.418,3.582-8,8-8h88c4.418,0,8,3.582,8,8l0,0c0,4.418-3.582,8-8,8h-88C299.582,144,296,140.418,296,136L296,136z M288,160h120
		c4.418,0,8,3.582,8,8s-3.582,8-8,8H288c-4.418,0-8-3.582-8-8S283.582,160,288,160z M424,320H272c-4.418,0-8-3.582-8-8s3.582-8,8-8
		h152c4.418,0,8,3.582,8,8S428.418,320,424,320z M424,288H272c-4.418,0-8-3.582-8-8s3.582-8,8-8h152c4.418,0,8,3.582,8,8
		S428.418,288,424,288z M424,256H272c-4.418,0-8-3.582-8-8s3.582-8,8-8h152c4.418,0,8,3.582,8,8S428.418,256,424,256z M424,224H272
		c-4.418,0-8-3.582-8-8s3.582-8,8-8h152c4.418,0,8,3.582,8,8S428.418,224,424,224z"/>
	<path style="fill:#FFEBE1;" d="M0.325,387.225C0.112,386.183,0,385.105,0,384C0,385.105,0.112,386.183,0.325,387.225z"/>
	<path style="fill:#FFEBE1;" d="M0.528,75.987c0.09-0.348,0.184-0.694,0.297-1.033C0.712,75.292,0.618,75.638,0.528,75.987z"/>
	<path style="fill:#FFEBE1;" d="M0.325,387.225c1.279,6.249,6.201,11.172,12.45,12.45C6.526,398.396,1.604,393.474,0.325,387.225z"
		/>
	<path style="fill:#FFEBE1;" d="M12.775,64.325C13.817,64.112,14.895,64,16,64C14.895,64,13.817,64.112,12.775,64.325z"/>
	<path style="fill:#FFEBE1;" d="M10.704,64.916c0.674-0.237,1.36-0.446,2.071-0.591C12.064,64.471,11.378,64.68,10.704,64.916z"/>
	<path style="fill:#E86464;" d="M16,64c-1.105,0-2.183,0.112-3.225,0.325c-0.711,0.146-1.398,0.355-2.071,0.591
		c-4.654,1.635-8.32,5.348-9.879,10.037c-0.113,0.339-0.207,0.685-0.297,1.033C0.195,77.271,0,78.611,0,80v304
		c0,1.105,0.112,2.183,0.325,3.225c1.279,6.249,6.201,11.172,12.45,12.45C13.817,399.888,14.895,400,16,400h216V64H16z M116,294.545
		c-31.862-14.979-67.2-51.692-67.2-82.238c0-22.061,17.637-39.944,39.393-39.944c10.855,0,20.682,4.454,27.807,11.655
		c7.125-7.201,16.952-11.655,27.807-11.655c21.756,0,39.393,17.884,39.393,39.944C183.2,242.853,147.862,279.567,116,294.545z"/>
	<path style="fill:#E86464;" d="M304,144h88c4.418,0,8-3.582,8-8l0,0c0-4.418-3.582-8-8-8h-88c-4.418,0-8,3.582-8,8l0,0
		C296,140.418,299.582,144,304,144z"/>
	<path style="fill:#E86464;" d="M288,176h120c4.418,0,8-3.582,8-8s-3.582-8-8-8H288c-4.418,0-8,3.582-8,8S283.582,176,288,176z"/>
	<path style="fill:#D2555D;" d="M424,208H272c-4.418,0-8,3.582-8,8s3.582,8,8,8h152c4.418,0,8-3.582,8-8S428.418,208,424,208z"/>
	<path style="fill:#D2555D;" d="M424,304H272c-4.418,0-8,3.582-8,8s3.582,8,8,8h152c4.418,0,8-3.582,8-8S428.418,304,424,304z"/>
	<path style="fill:#D2555D;" d="M424,240H272c-4.418,0-8,3.582-8,8s3.582,8,8,8h152c4.418,0,8-3.582,8-8S428.418,240,424,240z"/>
	<path style="fill:#D2555D;" d="M424,272H272c-4.418,0-8,3.582-8,8s3.582,8,8,8h152c4.418,0,8-3.582,8-8S428.418,272,424,272z"/>
	<path style="fill:#FFD76E;" d="M143.807,172.364c-10.855,0-20.682,4.454-27.807,11.655c-7.125-7.201-16.952-11.655-27.807-11.655
		c-21.756,0-39.393,17.884-39.393,39.944c0,30.546,35.339,67.259,67.2,82.238c31.862-14.979,67.2-51.692,67.2-82.238
		C183.2,190.247,165.563,172.364,143.807,172.364z"/>
</g>
<g>
</g>
<g>
</g>
<g>
</g>
<g>
</g>
<g>
</g>
<g>
</g>
<g>
</g>
<g>
</g>
<g>
</g>
<g>
</g>
<g>
</g>
<g>
</g>
<g>
</g>
<g>
</g>
<g>
</g>
</svg>
