<?xml version="1.0" encoding="iso-8859-1"?>
<!DOCTYPE svg PUBLIC "-//W3C//DTD SVG 1.1//EN" "http://www.w3.org/Graphics/SVG/1.1/DTD/svg11.dtd">
<svg xmlns="http://www.w3.org/2000/svg" xmlns:xlink="http://www.w3.org/1999/xlink" version="1.1" viewBox="0 0 296.999 296.999" enable-background="new 0 0 296.999 296.999" width="512px" height="512px">
  <g>
    <path d="m171.846,150.048c-7.053,0-12.789,6.314-12.789,14.078 0,5.752-4.662,10.415-10.414,10.415-5.752,0-10.414-4.663-10.414-10.415 0-7.764-5.736-14.078-12.785-14.078-7.051,0-12.789,6.314-12.789,14.078 0,11.643 19.477,30.406 35.98,42.42 16.508-12.039 35.986-30.817 35.986-42.42 0.001-7.763-5.73-14.078-12.775-14.078z" fill="#c7a22b"/>
    <path d="m293.362,130.728l-138.084-118.358c-3.898-3.342-9.654-3.344-13.555-5.32907e-15l-138.086,118.358c-3.309,2.837-4.502,7.434-2.99,11.521 1.512,4.088 5.41,6.801 9.767,6.801h29.037v127.671c0,5.751 4.664,10.415 10.416,10.415h197.264c5.752,0 10.414-4.664 10.414-10.415v-127.671h29.039c4.357,0 8.256-2.713 9.767-6.801 1.513-4.088 0.32-8.684-2.989-11.521zm-114.455,77.785c-12.082,11.162-24.025,19.077-24.527,19.409-1.74,1.147-3.738,1.721-5.736,1.721-1.998,0-3.994-0.573-5.734-1.721-0.502-0.332-12.447-8.247-24.533-19.406-17.617-16.27-26.549-31.204-26.549-44.39 0-19.248 15.08-34.907 33.617-34.907 8.988,0 17.162,3.682 23.199,9.669 6.039-5.987 14.213-9.669 23.203-9.669 18.529,0 33.605,15.659 33.605,34.907 0,13.184-8.93,28.117-26.545,44.387z" fill="#c7a22b"/>
  </g>
</svg>
