<?xml version="1.0" encoding="iso-8859-1"?>
<!DOCTYPE svg PUBLIC "-//W3C//DTD SVG 1.1//EN" "http://www.w3.org/Graphics/SVG/1.1/DTD/svg11.dtd">
<svg xmlns="http://www.w3.org/2000/svg" xmlns:xlink="http://www.w3.org/1999/xlink" version="1.1" viewBox="0 0 297 297" enable-background="new 0 0 297 297" width="512px" height="512px">
  <g>
    <path d="m144.784,62.156c0,0 36.105-23.903 36.105-43.028 2.84217e-14-10.567-8.078-19.128-18.051-19.128-9.972,0-18.054,8.561-18.054,19.128 0-10.567-8.083-19.128-18.055-19.128-9.971,0-18.055,8.561-18.055,19.128 0,19.125 36.11,43.028 36.11,43.028z" fill="#c7a22b"/>
    <path d="m60.704,88.885c0,0 26.753-17.715 26.753-31.887 0-7.83-5.984-14.174-13.375-14.174-7.39,0-13.378,6.344-13.378,14.176 0-7.832-5.99-14.176-13.38-14.176-7.389,0-13.379,6.345-13.379,14.176 7.10543e-15,14.17 26.759,31.885 26.759,31.885z" fill="#c7a22b"/>
    <path d="m227.436,88.885c0,0 26.754-17.715 26.754-31.887 0-7.83-5.984-14.174-13.375-14.174-7.39,0-13.379,6.344-13.379,14.176 0-7.832-5.989-14.176-13.379-14.176-7.389,0-13.379,6.345-13.379,14.176 0.001,14.17 26.758,31.885 26.758,31.885z" fill="#c7a22b"/>
    <path d="m277.004,267.99l-22.445-147.111c-0.79-5.18-5.244-9.005-10.483-9.005h-191.363c-5.244,0-9.701,3.834-10.484,9.02l-22.235,147.111c-0.079,0.524-0.119,1.055-0.119,1.585 0,15.113 12.391,27.41 27.622,27.41 6.392,0 12.283-2.175 16.964-5.818 4.681,3.644 10.57,5.818 16.963,5.818 6.328,0 12.162-2.155 16.807-5.771 4.645,3.615 10.478,5.771 16.807,5.771 6.373,0 12.249-2.17 16.921-5.806 4.67,3.636 10.546,5.806 16.92,5.806 6.328,0 12.163-2.155 16.808-5.771 4.645,3.615 10.478,5.771 16.806,5.771 6.327,0 12.162-2.156 16.807-5.771 4.644,3.614 10.478,5.771 16.805,5.771 6.328,0 12.163-2.155 16.808-5.771 4.645,3.615 10.477,5.771 16.806,5.771 15.114,0 27.409-12.297 27.409-27.41-0.003-0.535-0.043-1.07-0.124-1.6z" fill="#c7a22b"/>
  </g>
</svg>
