<?xml version="1.0" encoding="iso-8859-1"?>
<!-- Generator: Adobe Illustrator 19.0.0, SVG Export Plug-In . SVG Version: 6.00 Build 0)  -->
<svg version="1.1" id="Capa_1" xmlns="http://www.w3.org/2000/svg" xmlns:xlink="http://www.w3.org/1999/xlink" x="0px" y="0px"
	 viewBox="0 0 461.882 461.882" style="enable-background:new 0 0 461.882 461.882;" xml:space="preserve">
<g>
	<polygon style="fill:#FFE1CD;" points="150.918,194.941 150.918,410.941 162.043,410.941 176.94,194.941 	"/>
	<path style="fill:#FFE1CD;" d="M25.622,195.857c0.674-0.237,1.36-0.446,2.071-0.591C26.982,195.412,26.295,195.621,25.622,195.857z
		"/>
	<path style="fill:#FFE1CD;" d="M27.693,195.266c1.042-0.213,2.12-0.325,3.225-0.325C29.813,194.941,28.735,195.053,27.693,195.266z
		"/>
	<path style="fill:#FFE1CD;" d="M15.445,206.928c0.09-0.348,0.184-0.694,0.297-1.033C15.63,206.234,15.536,206.58,15.445,206.928z"
		/>
	<polygon style="fill:#FFE1CD;" points="230.941,194.941 206.466,194.941 176.94,194.941 191.836,410.941 206.918,410.941 
		216.045,410.941 	"/>
	<polygon style="fill:#FFE1CD;" points="284.943,194.941 299.839,410.941 324.048,410.941 338.944,194.941 	"/>
	<polygon style="fill:#FFE1CD;" points="338.944,194.941 353.841,410.941 378.049,410.941 392.946,194.941 	"/>
	<polygon style="fill:#FFE1CD;" points="254.466,194.941 230.941,194.941 245.838,410.941 254.918,410.941 270.046,410.941 
		284.943,194.941 	"/>
	<path style="fill:#FFE1CD;" d="M446.918,210.941c0-8.836-7.163-16-16-16h-37.972l14.897,216h24.209l14.867-199.605V210.941z"/>
	<path style="fill:#7D5050;" d="M166.918,442.941c-4.418,0-8,3.582-8,8s3.582,8,8,8h128c4.418,0,8-3.582,8-8s-3.582-8-8-8h-40h-48
		H166.918z"/>
	<path style="fill:#6B3C41;" d="M245.84,410.979c0.595,8.632-6.247,15.962-14.899,15.962s-15.495-7.33-14.899-15.962l0.003-0.038
		h-9.127v32h48v-32h-9.08L245.84,410.979z"/>
	<path style="fill:#FFEBE1;" d="M162.043,410.941l-0.003,0.038c-0.595,8.632,6.247,15.962,14.899,15.962h0
		c8.653,0,15.494-7.33,14.899-15.962l-0.003-0.038l-14.897-216L162.043,410.941z"/>
	<path style="fill:#FFEBE1;" d="M216.042,410.979c-0.595,8.632,6.247,15.962,14.899,15.962s15.494-7.33,14.899-15.962l-0.003-0.038
		l-14.897-216l-14.897,216L216.042,410.979z"/>
	<path style="fill:#FFEBE1;" d="M324.048,410.941l-0.003,0.038c-0.595,8.632,6.247,15.962,14.899,15.962s15.495-7.33,14.899-15.962
		l-0.003-0.038l-14.897-216L324.048,410.941z"/>
	<path style="fill:#FFEBE1;" d="M270.046,410.941l-0.003,0.038c-0.595,8.632,6.247,15.962,14.899,15.962s15.495-7.33,14.899-15.962
		l-0.003-0.038l-14.897-216L270.046,410.941z"/>
	<path style="fill:#FFEBE1;" d="M378.049,410.941l-0.003,0.038c-0.595,8.632,6.247,15.962,14.899,15.962h0
		c8.653,0,15.494-7.33,14.899-15.962l-0.003-0.038l-14.897-216L378.049,410.941z"/>
	<path style="fill:#FFEBE1;" d="M461.846,410.979l-14.899-200.038l-0.029,0.395l-14.867,199.605l-0.003,0.038
		c-0.595,8.632,6.247,15.962,14.899,15.962h0C455.6,426.941,462.442,419.611,461.846,410.979z"/>
	<path style="fill:#F0D4BE;" d="M30.918,194.941c-1.105,0-2.183,0.112-3.225,0.325c-0.711,0.146-1.398,0.354-2.071,0.591
		c-4.654,1.635-8.32,5.348-9.879,10.037c-0.113,0.339-0.207,0.685-0.297,1.033c-0.332,1.285-0.528,2.625-0.528,4.013v0.237
		l0.018-0.237l14.896,200H54.04l14.897-216H30.918z"/>
	<polygon style="fill:#F0D4BE;" points="68.937,194.941 83.833,410.941 108.042,410.941 122.938,194.941 	"/>
	<polygon style="fill:#F0D4BE;" points="122.938,194.941 137.835,410.941 150.918,410.941 150.918,194.941 	"/>
	<path style="fill:#FFE1CD;" d="M108.042,410.941l-0.003,0.038c-0.595,8.632,6.247,15.962,14.899,15.962h0
		c8.653,0,15.494-7.33,14.899-15.962l-0.003-0.038l-14.897-216L108.042,410.941z"/>
	<path style="fill:#FFE1CD;" d="M54.04,410.941l-0.003,0.038c-0.595,8.632,6.247,15.962,14.899,15.962h0
		c8.653,0,15.494-7.33,14.899-15.962l-0.003-0.038l-14.897-216L54.04,410.941z"/>
	<path style="fill:#FFE1CD;" d="M14.918,211.178L0.036,410.979c-0.595,8.632,6.247,15.962,14.899,15.962s15.495-7.33,14.899-15.962
		l-0.003-0.038l-14.896-200L14.918,211.178z"/>
	<path style="fill:#FFB996;" d="M254.466,194.941l-3.847-35.352c-5.966,2.167-12.403,3.352-19.118,3.352
		c-7.047,0-13.785-1.314-19.997-3.691l-5.039,35.691h24.476H254.466z"/>
	<path style="fill:#FFD7B4;" d="M250.619,159.59c16.827-6.112,29.88-20.064,34.774-37.438c-3.129,0.662-6.433,0.26-9.344-1.205
		c-1.8,5.79-7.201,9.994-13.583,9.994c-6.397,0-11.806-4.224-13.594-10.035c-5.335,2.696-12.011,1.824-16.468-2.633
		c-0.754-0.754-1.396-1.575-1.945-2.438c-0.553,0.875-1.201,1.707-1.964,2.47c-4.451,4.451-11.115,5.325-16.447,2.642
		c-1.8,5.79-7.201,9.994-13.583,9.994c-6.397,0-11.806-4.224-13.594-10.035c-2.249,1.136-4.733,1.63-7.192,1.496
		c4.862,16.953,17.504,30.606,33.824,36.849c6.212,2.376,12.949,3.691,19.997,3.691C238.216,162.941,244.653,161.756,250.619,159.59
		z"/>
	<path style="fill:#E88470;" d="M187.574,79.137c0.533-0.635,1.12-1.221,1.754-1.754c-3.108-5.736-5.085-13.177-5.085-17.552
		c0-1.482,0.228-2.91,0.648-4.253c-5.323-2.651-11.957-1.77-16.393,2.667c-4.447,4.447-5.324,11.104-2.649,16.433
		c1.32-0.405,2.72-0.625,4.172-0.625C174.396,74.052,181.837,76.029,187.574,79.137z"/>
	<path style="fill:#E88470;" d="M184.872,120.906c-0.407-1.324-0.629-2.729-0.629-4.187c0-4.375,1.977-11.816,5.085-17.553
		c-0.635-0.533-1.221-1.12-1.754-1.754c-5.736,3.108-13.178,5.085-17.553,5.085c-1.487,0-2.92-0.23-4.267-0.653
		c-2.673,5.329-1.796,11.983,2.65,16.43c2.578,2.578,5.901,3.944,9.276,4.128C180.139,122.536,182.623,122.042,184.872,120.906z"/>
	<path style="fill:#D2504B;" d="M207.603,99.166c-2.472,2.076-5.657,3.331-9.138,3.331s-6.666-1.254-9.138-3.331
		c-3.108,5.736-5.085,13.178-5.085,17.553c0,1.458,0.221,2.863,0.629,4.187c1.788,5.811,7.197,10.035,13.594,10.035
		c6.382,0,11.783-4.204,13.583-9.994c0.415-1.336,0.639-2.756,0.639-4.228C212.688,112.344,210.711,104.903,207.603,99.166z"/>
	<path style="fill:#D2504B;" d="M189.328,77.383c2.472-2.076,5.657-3.33,9.138-3.33c0.215,0,0.424,0.023,0.637,0.032
		c-3.28-4.355-3.733-10.155-1.349-14.908c1.347,0.423,2.78,0.653,4.267,0.653c4.375,0,11.816-1.977,17.553-5.085
		c-2.076-2.472-3.33-5.657-3.33-9.137s1.254-6.666,3.33-9.138c-5.736-3.108-13.178-5.085-17.553-5.085
		c-1.452,0-2.852,0.22-4.172,0.625c-5.818,1.783-10.05,7.195-10.05,13.598c0,1.446,0.219,2.841,0.621,4.156
		c-1.608,1.604-2.833,3.592-3.528,5.813c-0.42,1.343-0.648,2.771-0.648,4.253C184.243,64.205,186.221,71.646,189.328,77.383z"/>
	<path style="fill:#D2504B;" d="M187.574,97.412c-2.076-2.472-3.33-5.657-3.33-9.138s1.254-6.666,3.33-9.137
		c-5.736-3.108-13.178-5.085-17.553-5.085c-1.452,0-2.852,0.22-4.172,0.625c-5.818,1.783-10.05,7.195-10.05,13.597
		c0,6.368,4.186,11.756,9.955,13.569c1.347,0.423,2.78,0.653,4.267,0.653C174.396,102.497,181.837,100.52,187.574,97.412z"/>
	<path style="fill:#823C41;" d="M198.466,102.497c3.481,0,6.666-1.254,9.138-3.331c0.635-0.533,1.221-1.12,1.754-1.754
		c2.076-2.472,3.33-5.657,3.33-9.138c0-3.206-1.074-6.154-2.863-8.532c-3.425-0.153-6.805-1.52-9.42-4.135
		c-0.481-0.48-0.904-0.995-1.301-1.522c-0.213-0.01-0.422-0.032-0.637-0.032c-3.481,0-6.666,1.254-9.138,3.33
		c-0.635,0.533-1.221,1.12-1.754,1.754c-2.076,2.472-3.33,5.657-3.33,9.137s1.254,6.666,3.33,9.138
		c0.533,0.635,1.12,1.221,1.754,1.754C191.8,101.242,194.985,102.497,198.466,102.497z"/>
	<path style="fill:#E88470;" d="M271.603,77.383c0.635,0.533,1.221,1.12,1.754,1.754c5.736-3.108,13.178-5.085,17.553-5.085
		c1.467,0,2.882,0.223,4.213,0.635c2.662-5.326,1.783-11.97-2.658-16.412c-4.442-4.442-11.086-5.321-16.412-2.658
		c0.412,1.331,0.635,2.746,0.635,4.213C276.688,64.205,274.711,71.646,271.603,77.383z"/>
	<path style="fill:#E88470;" d="M273.358,97.412c-0.533,0.635-1.12,1.221-1.754,1.754c3.108,5.736,5.085,13.178,5.085,17.553
		c0,1.472-0.224,2.892-0.639,4.228c2.911,1.465,6.215,1.867,9.344,1.205c2.602-0.55,5.082-1.826,7.103-3.847
		c4.451-4.451,5.326-11.115,2.642-16.447c-1.336,0.415-2.756,0.639-4.228,0.639C286.535,102.497,279.094,100.52,273.358,97.412z"/>
	<path style="fill:#E88470;" d="M253.328,99.166c-0.635-0.533-1.221-1.12-1.754-1.754c-5.736,3.108-13.178,5.085-17.553,5.085
		c-1.487,0-2.92-0.23-4.267-0.653c-0.065,0.13-0.122,0.264-0.184,0.396c-0.863,0.163-1.75,0.258-2.66,0.258
		c-4.375,0-11.816-1.977-17.553-5.085c-0.533,0.635-1.12,1.221-1.754,1.754c3.108,5.736,5.085,13.178,5.085,17.553
		c0,1.472-0.224,2.892-0.639,4.228c5.331,2.683,11.996,1.809,16.447-2.642c0.763-0.763,1.41-1.595,1.964-2.47
		c0.549,0.864,1.191,1.685,1.945,2.438c4.457,4.457,11.133,5.329,16.468,2.633c-0.407-1.324-0.629-2.729-0.629-4.187
		C248.243,112.344,250.22,104.903,253.328,99.166z"/>
	<path style="fill:#D2504B;" d="M271.603,99.166c-2.472,2.076-5.657,3.331-9.138,3.331s-6.666-1.254-9.138-3.331
		c-3.108,5.736-5.085,13.178-5.085,17.553c0,1.458,0.221,2.863,0.629,4.187c1.788,5.811,7.197,10.035,13.594,10.035
		c6.382,0,11.783-4.204,13.583-9.994c0.415-1.336,0.639-2.756,0.639-4.228C276.688,112.344,274.711,104.903,271.603,99.166z"/>
	<path style="fill:#D2504B;" d="M248.243,88.274c0-3.192,1.065-6.128,2.84-8.502c-2.407,0.109-4.833-0.384-7.035-1.493
		c0.415-1.335,0.639-2.755,0.639-4.228c0-4.375-1.977-11.816-5.085-17.552c-2.472,2.076-5.657,3.33-9.138,3.33
		s-6.666-1.254-9.138-3.33c-3.108,5.736-5.085,13.177-5.085,17.552c0,1.458,0.221,2.863,0.629,4.187
		c-2.205,1.114-4.635,1.61-7.047,1.503c1.79,2.379,2.863,5.327,2.863,8.532c0,3.481-1.254,6.666-3.33,9.138
		c5.736,3.108,13.178,5.085,17.553,5.085c0.91,0,1.798-0.094,2.66-0.258c0.061-0.132,0.118-0.265,0.184-0.396
		c1.347,0.423,2.78,0.653,4.267,0.653c4.375,0,11.816-1.977,17.553-5.085C249.498,94.94,248.243,91.755,248.243,88.274z"/>
	<path style="fill:#D2504B;" d="M273.358,79.137c2.076,2.472,3.33,5.657,3.33,9.137s-1.254,6.666-3.33,9.138
		c5.736,3.108,13.178,5.085,17.553,5.085c1.472,0,2.892-0.224,4.228-0.639c5.79-1.8,9.994-7.201,9.994-13.583
		c0-6.388-4.212-11.791-10.009-13.587c-1.331-0.412-2.746-0.635-4.213-0.635C286.535,74.052,279.094,76.029,273.358,79.137z"/>
	<path style="fill:#823C41;" d="M260.496,75.638c-2.613,2.613-5.99,3.98-9.412,4.135c-1.776,2.373-2.84,5.31-2.84,8.502
		c0,3.481,1.254,6.666,3.33,9.138c0.533,0.635,1.12,1.221,1.754,1.754c2.472,2.076,5.657,3.331,9.138,3.331s6.666-1.254,9.138-3.331
		c0.635-0.533,1.221-1.12,1.754-1.754c2.076-2.472,3.33-5.657,3.33-9.138s-1.254-6.666-3.33-9.137
		c-0.533-0.635-1.12-1.221-1.754-1.754c-2.472-2.076-5.657-3.33-9.138-3.33c-0.218,0-0.43,0.023-0.646,0.032
		C261.416,74.624,260.986,75.148,260.496,75.638z"/>
	<path style="fill:#E88470;" d="M219.574,36.47c0.533-0.635,1.12-1.221,1.754-1.754c-3.108-5.736-5.085-13.178-5.085-17.553
		c0-1.481,0.228-2.91,0.648-4.253c-5.323-2.651-11.957-1.77-16.393,2.667c-4.447,4.447-5.324,11.104-2.649,16.433
		c1.32-0.405,2.72-0.625,4.172-0.625C206.396,31.386,213.837,33.363,219.574,36.47z"/>
	<path style="fill:#E88470;" d="M239.603,34.716c0.635,0.533,1.221,1.12,1.754,1.754c5.736-3.108,13.178-5.085,17.553-5.085
		c1.467,0,2.882,0.223,4.213,0.635c2.662-5.326,1.783-11.97-2.658-16.412s-11.086-5.321-16.412-2.658
		c0.412,1.331,0.635,2.746,0.635,4.213C244.688,21.538,242.711,28.98,239.603,34.716z"/>
	<path style="fill:#E88470;" d="M239.603,56.5c3.108,5.736,5.085,13.177,5.085,17.552c0,1.472-0.224,2.892-0.639,4.228
		c2.202,1.108,4.627,1.601,7.035,1.493c3.422-0.154,6.799-1.522,9.412-4.135c0.49-0.49,0.921-1.014,1.324-1.553
		c3.263-4.357,3.706-10.149,1.318-14.894c-1.336,0.415-2.756,0.639-4.228,0.639c-4.375,0-11.816-1.977-17.553-5.085
		C240.825,55.38,240.238,55.967,239.603,56.5z"/>
	<path style="fill:#E88470;" d="M200.404,75.607c2.615,2.615,5.996,3.983,9.42,4.135c2.412,0.107,4.843-0.388,7.047-1.503
		c-0.407-1.324-0.629-2.729-0.629-4.187c0-4.375,1.977-11.816,5.085-17.552c-0.635-0.533-1.221-1.12-1.754-1.754
		c-5.736,3.108-13.178,5.085-17.553,5.085c-1.487,0-2.92-0.23-4.267-0.653c-2.384,4.753-1.931,10.552,1.349,14.908
		C199.5,74.612,199.924,75.126,200.404,75.607z"/>
	<path style="fill:#D2504B;" d="M221.328,34.716c2.472-2.076,5.657-3.331,9.138-3.331s6.666,1.254,9.138,3.331
		c3.108-5.736,5.085-13.178,5.085-17.553c0-1.467-0.223-2.882-0.635-4.213c-1.796-5.798-7.199-10.009-13.587-10.009
		c-6.373,0-11.766,4.192-13.574,9.969c-0.42,1.343-0.648,2.771-0.648,4.253C216.243,21.538,218.22,28.98,221.328,34.716z"/>
	<path style="fill:#D2504B;" d="M241.358,36.47c2.076,2.472,3.33,5.657,3.33,9.138s-1.254,6.666-3.33,9.137
		c5.736,3.108,13.178,5.085,17.553,5.085c1.472,0,2.892-0.224,4.228-0.639c2.388,4.745,1.945,10.536-1.318,14.894
		c0.216-0.01,0.428-0.032,0.646-0.032c3.481,0,6.666,1.254,9.138,3.33c3.108-5.736,5.085-13.177,5.085-17.552
		c0-1.467-0.223-2.882-0.635-4.213c-0.693-2.238-1.923-4.239-3.541-5.853c0.401-1.315,0.621-2.71,0.621-4.156
		c0-6.388-4.212-11.791-10.009-13.587c-1.331-0.412-2.746-0.635-4.213-0.635C254.535,31.386,247.094,33.363,241.358,36.47z"/>
	<path style="fill:#823C41;" d="M221.328,56.5c2.472,2.076,5.657,3.33,9.138,3.33s6.666-1.254,9.138-3.33
		c0.635-0.533,1.221-1.12,1.754-1.754c2.076-2.472,3.33-5.657,3.33-9.137s-1.254-6.666-3.33-9.138
		c-0.533-0.635-1.12-1.221-1.754-1.754c-2.472-2.076-5.657-3.331-9.138-3.331s-6.666,1.254-9.138,3.331
		c-0.635,0.533-1.221,1.12-1.754,1.754c-2.076,2.472-3.33,5.657-3.33,9.138s1.254,6.666,3.33,9.137
		C220.107,55.38,220.694,55.967,221.328,56.5z"/>
</g>
<g>
</g>
<g>
</g>
<g>
</g>
<g>
</g>
<g>
</g>
<g>
</g>
<g>
</g>
<g>
</g>
<g>
</g>
<g>
</g>
<g>
</g>
<g>
</g>
<g>
</g>
<g>
</g>
<g>
</g>
</svg>
